<svg xmlns="http://www.w3.org/2000/svg" xmlns:xlink="http://www.w3.org/1999/xlink" width="408" zoomAndPan="magnify" viewBox="0 0 306 92.999996" height="124" preserveAspectRatio="xMidYMid meet" version="1.2"><defs><clipPath id="182fe67a71"><path d="M 0 6.890625 L 306 6.890625 L 306 86.109375 L 0 86.109375 Z M 0 6.890625 "/></clipPath><clipPath id="31577a4711"><path d="M 17.25 6.890625 L 288.75 6.890625 C 293.324219 6.890625 297.710938 8.710938 300.949219 11.945312 C 304.183594 15.179688 306 19.566406 306 24.140625 L 306 68.859375 C 306 73.433594 304.183594 77.820312 300.949219 81.054688 C 297.710938 84.289062 293.324219 86.109375 288.75 86.109375 L 17.25 86.109375 C 12.675781 86.109375 8.289062 84.289062 5.050781 81.054688 C 1.816406 77.820312 0 73.433594 0 68.859375 L 0 24.140625 C 0 19.566406 1.816406 15.179688 5.050781 11.945312 C 8.289062 8.710938 12.675781 6.890625 17.25 6.890625 Z M 17.25 6.890625 "/></clipPath><clipPath id="6df472b146"><path d="M 0 0.890625 L 306 0.890625 L 306 80.109375 L 0 80.109375 Z M 0 0.890625 "/></clipPath><clipPath id="b9ef0f6e3f"><path d="M 17.25 0.890625 L 288.75 0.890625 C 293.324219 0.890625 297.710938 2.710938 300.949219 5.945312 C 304.183594 9.179688 306 13.566406 306 18.140625 L 306 62.859375 C 306 67.433594 304.183594 71.820312 300.949219 75.054688 C 297.710938 78.289062 293.324219 80.109375 288.75 80.109375 L 17.25 80.109375 C 12.675781 80.109375 8.289062 78.289062 5.050781 75.054688 C 1.816406 71.820312 0 67.433594 0 62.859375 L 0 18.140625 C 0 13.566406 1.816406 9.179688 5.050781 5.945312 C 8.289062 2.710938 12.675781 0.890625 17.25 0.890625 Z M 17.25 0.890625 "/></clipPath><clipPath id="37bf0d3909"><rect x="0" width="306" y="0" height="81"/></clipPath><clipPath id="ee97418ca1"><path d="M 7.664062 14.890625 L 79.777344 14.890625 L 79.777344 78.109375 L 7.664062 78.109375 Z M 7.664062 14.890625 "/></clipPath><clipPath id="0583f4cc65"><path d="M 13.664062 14.890625 L 73.671875 14.890625 C 75.261719 14.890625 76.789062 15.523438 77.914062 16.648438 C 79.039062 17.773438 79.671875 19.296875 79.671875 20.890625 L 79.671875 72.109375 C 79.671875 73.703125 79.039062 75.226562 77.914062 76.351562 C 76.789062 77.476562 75.261719 78.109375 73.671875 78.109375 L 13.664062 78.109375 C 12.074219 78.109375 10.546875 77.476562 9.421875 76.351562 C 8.296875 75.226562 7.664062 73.703125 7.664062 72.109375 L 7.664062 20.890625 C 7.664062 19.296875 8.296875 17.773438 9.421875 16.648438 C 10.546875 15.523438 12.074219 14.890625 13.664062 14.890625 Z M 13.664062 14.890625 "/></clipPath><clipPath id="ace70d641b"><path d="M 0.664062 0.890625 L 72.679688 0.890625 L 72.679688 64.109375 L 0.664062 64.109375 Z M 0.664062 0.890625 "/></clipPath><clipPath id="6ff1a9ac3a"><path d="M 6.664062 0.890625 L 66.671875 0.890625 C 68.261719 0.890625 69.789062 1.523438 70.914062 2.648438 C 72.039062 3.773438 72.671875 5.296875 72.671875 6.890625 L 72.671875 58.109375 C 72.671875 59.703125 72.039062 61.226562 70.914062 62.351562 C 69.789062 63.476562 68.261719 64.109375 66.671875 64.109375 L 6.664062 64.109375 C 5.074219 64.109375 3.546875 63.476562 2.421875 62.351562 C 1.296875 61.226562 0.664062 59.703125 0.664062 58.109375 L 0.664062 6.890625 C 0.664062 5.296875 1.296875 3.773438 2.421875 2.648438 C 3.546875 1.523438 5.074219 0.890625 6.664062 0.890625 Z M 6.664062 0.890625 "/></clipPath><clipPath id="7146c5aa9b"><rect x="0" width="73" y="0" height="65"/></clipPath><clipPath id="20be27d9ae"><path d="M 28.816406 25.464844 L 56.257812 25.464844 L 56.257812 30.441406 L 28.816406 30.441406 Z M 28.816406 25.464844 "/></clipPath><clipPath id="6259abc585"><path d="M 31.304688 25.464844 L 53.753906 25.464844 C 54.414062 25.464844 55.046875 25.726562 55.515625 26.195312 C 55.980469 26.660156 56.242188 27.292969 56.242188 27.953125 C 56.242188 28.613281 55.980469 29.246094 55.515625 29.710938 C 55.046875 30.179688 54.414062 30.441406 53.753906 30.441406 L 31.304688 30.441406 C 30.644531 30.441406 30.011719 30.179688 29.542969 29.710938 C 29.078125 29.246094 28.816406 28.613281 28.816406 27.953125 C 28.816406 27.292969 29.078125 26.660156 29.542969 26.195312 C 30.011719 25.726562 30.644531 25.464844 31.304688 25.464844 Z M 31.304688 25.464844 "/></clipPath><clipPath id="25ee953f88"><path d="M 0.816406 0.464844 L 28.257812 0.464844 L 28.257812 5.441406 L 0.816406 5.441406 Z M 0.816406 0.464844 "/></clipPath><clipPath id="32869870d3"><path d="M 3.304688 0.464844 L 25.753906 0.464844 C 26.414062 0.464844 27.046875 0.726562 27.515625 1.195312 C 27.980469 1.660156 28.242188 2.292969 28.242188 2.953125 C 28.242188 3.613281 27.980469 4.246094 27.515625 4.710938 C 27.046875 5.179688 26.414062 5.441406 25.753906 5.441406 L 3.304688 5.441406 C 2.644531 5.441406 2.011719 5.179688 1.542969 4.710938 C 1.078125 4.246094 0.816406 3.613281 0.816406 2.953125 C 0.816406 2.292969 1.078125 1.660156 1.542969 1.195312 C 2.011719 0.726562 2.644531 0.464844 3.304688 0.464844 Z M 3.304688 0.464844 "/></clipPath><clipPath id="14cfe0c893"><rect x="0" width="29" y="0" height="6"/></clipPath><clipPath id="4630ffa6ca"><path d="M 41 59 L 74 59 L 74 78.226562 L 41 78.226562 Z M 41 59 "/></clipPath><clipPath id="b873654225"><path d="M 11 56 L 55 56 L 55 78.226562 L 11 78.226562 Z M 11 56 "/></clipPath><clipPath id="f197379807"><path d="M 16 42.226562 L 70 42.226562 L 70 78.226562 L 16 78.226562 Z M 16 42.226562 "/></clipPath><clipPath id="00dee06161"><path d="M 29 60 L 56 60 L 56 78.226562 L 29 78.226562 Z M 29 60 "/></clipPath><clipPath id="9fdeecc500"><path d="M 13 44 L 72 44 L 72 78.226562 L 13 78.226562 Z M 13 44 "/></clipPath><clipPath id="400e300553"><rect x="0" width="98" y="0" height="19"/></clipPath><clipPath id="ca1f6d0fb7"><rect x="0" width="201" y="0" height="27"/></clipPath></defs><g id="ca9f3531b7"><g clip-rule="nonzero" clip-path="url(#182fe67a71)"><g clip-rule="nonzero" clip-path="url(#31577a4711)"><g transform="matrix(1,0,0,1,0,6)"><g clip-path="url(#37bf0d3909)"><g clip-rule="nonzero" clip-path="url(#6df472b146)"><g clip-rule="nonzero" clip-path="url(#b9ef0f6e3f)"><path style=" stroke:none;fill-rule:nonzero;fill:#e7e7e7;fill-opacity:1;" d="M 0 0.890625 L 306.03125 0.890625 L 306.03125 80.109375 L 0 80.109375 Z M 0 0.890625 "/></g></g></g></g></g></g><g clip-rule="nonzero" clip-path="url(#ee97418ca1)"><g clip-rule="nonzero" clip-path="url(#0583f4cc65)"><g transform="matrix(1,0,0,1,7,14)"><g clip-path="url(#7146c5aa9b)"><g clip-rule="nonzero" clip-path="url(#ace70d641b)"><g clip-rule="nonzero" clip-path="url(#6ff1a9ac3a)"><path style=" stroke:none;fill-rule:nonzero;fill:#ffffff;fill-opacity:1;" d="M 0.664062 0.890625 L 72.777344 0.890625 L 72.777344 64.109375 L 0.664062 64.109375 Z M 0.664062 0.890625 "/></g></g></g></g></g></g><g clip-rule="nonzero" clip-path="url(#20be27d9ae)"><g clip-rule="nonzero" clip-path="url(#6259abc585)"><g transform="matrix(1,0,0,1,28,25)"><g clip-path="url(#14cfe0c893)"><g clip-rule="nonzero" clip-path="url(#25ee953f88)"><g clip-rule="nonzero" clip-path="url(#32869870d3)"><path style=" stroke:none;fill-rule:nonzero;fill:#000000;fill-opacity:1;" d="M 0.816406 0.464844 L 28.238281 0.464844 L 28.238281 5.441406 L 0.816406 5.441406 Z M 0.816406 0.464844 "/></g></g></g></g></g></g><g clip-rule="nonzero" clip-path="url(#4630ffa6ca)"><path style=" stroke:none;fill-rule:nonzero;fill:#ffcc44;fill-opacity:1;" d="M 42.554688 59.5 L 69.824219 59.5 C 70.125 60.09375 70.40625 60.699219 70.667969 61.308594 C 70.929688 61.921875 71.171875 62.542969 71.394531 63.171875 C 71.617188 63.800781 71.816406 64.433594 72 65.074219 C 72.179688 65.714844 72.339844 66.363281 72.476562 67.015625 C 72.613281 67.664062 72.730469 68.320312 72.828125 68.980469 C 72.921875 69.640625 72.996094 70.300781 73.050781 70.964844 C 73.101562 71.628906 73.132812 72.292969 73.140625 72.960938 C 73.152344 73.625 73.136719 74.292969 73.105469 74.957031 C 73.070312 75.621094 73.011719 76.285156 72.9375 76.945312 C 72.859375 77.609375 72.757812 78.265625 72.640625 78.921875 C 72.519531 79.578125 72.375 80.226562 72.214844 80.875 C 72.050781 81.519531 71.867188 82.160156 71.664062 82.792969 C 71.457031 83.425781 71.230469 84.054688 70.988281 84.671875 C 70.742188 85.292969 70.476562 85.902344 70.191406 86.503906 C 69.90625 87.105469 69.601562 87.699219 69.277344 88.28125 C 68.953125 88.863281 68.609375 89.433594 68.25 89.992188 C 67.886719 90.550781 67.507812 91.097656 67.113281 91.632812 C 66.714844 92.167969 66.300781 92.691406 65.871094 93.199219 C 65.4375 93.707031 64.992188 94.199219 64.527344 94.675781 C 64.066406 95.15625 63.589844 95.621094 63.09375 96.066406 C 62.601562 96.515625 62.09375 96.945312 61.574219 97.359375 C 61.050781 97.773438 60.515625 98.171875 59.96875 98.550781 C 59.421875 98.929688 58.863281 99.292969 58.292969 99.632812 C 57.722656 99.976562 57.140625 100.300781 56.550781 100.605469 C 55.957031 100.910156 55.355469 101.195312 54.746094 101.460938 C 54.132812 101.726562 53.515625 101.972656 52.890625 102.199219 C 52.261719 102.425781 51.628906 102.628906 50.988281 102.8125 C 50.351562 102.996094 49.703125 103.160156 49.054688 103.304688 C 48.402344 103.445312 47.75 103.566406 47.089844 103.664062 C 46.433594 103.765625 45.769531 103.84375 45.109375 103.898438 C 44.445312 103.953125 43.78125 103.988281 43.113281 104 C 42.449219 104.015625 41.78125 104.003906 41.117188 103.976562 "/></g><g clip-rule="nonzero" clip-path="url(#b873654225)"><path style=" stroke:none;fill-rule:nonzero;fill:#0f9d58;fill-opacity:1;" d="M 54.632812 80.320312 L 41.117188 103.976562 C 39.78125 103.914062 38.453125 103.765625 37.136719 103.53125 C 35.820312 103.296875 34.523438 102.976562 33.25 102.570312 C 31.972656 102.167969 30.730469 101.679688 29.519531 101.113281 C 28.308594 100.542969 27.136719 99.898438 26.011719 99.179688 C 24.882812 98.457031 23.808594 97.664062 22.785156 96.804688 C 21.761719 95.941406 20.800781 95.015625 19.898438 94.027344 C 18.996094 93.039062 18.160156 91.996094 17.394531 90.898438 C 16.628906 89.800781 15.941406 88.65625 15.324219 87.46875 C 14.710938 86.28125 14.171875 85.054688 13.71875 83.796875 C 13.261719 82.539062 12.890625 81.257812 12.605469 79.949219 C 12.316406 78.640625 12.117188 77.320312 12.003906 75.988281 C 11.890625 74.652344 11.863281 73.320312 11.921875 71.980469 C 11.984375 70.644531 12.132812 69.316406 12.367188 68 C 12.601562 66.683594 12.921875 65.386719 13.328125 64.109375 C 13.730469 62.835938 14.21875 61.589844 14.785156 60.378906 C 15.351562 59.167969 15.996094 57.996094 16.71875 56.867188 "/></g><g clip-rule="nonzero" clip-path="url(#f197379807)"><path style=" stroke:none;fill-rule:nonzero;fill:#db4437;fill-opacity:1;" d="M 42.554688 59.5 L 69.824219 59.5 C 69.214844 58.304688 68.53125 57.148438 67.769531 56.039062 C 67.011719 54.933594 66.183594 53.878906 65.285156 52.878906 C 64.382812 51.878906 63.425781 50.945312 62.402344 50.070312 C 61.382812 49.199219 60.304688 48.394531 59.179688 47.664062 C 58.050781 46.933594 56.882812 46.277344 55.667969 45.703125 C 54.453125 45.125 53.207031 44.628906 51.929688 44.214844 C 50.652344 43.800781 49.351562 43.476562 48.03125 43.234375 C 46.707031 42.992188 45.375 42.835938 44.035156 42.769531 C 42.691406 42.703125 41.351562 42.726562 40.011719 42.835938 C 38.671875 42.945312 37.347656 43.144531 36.035156 43.425781 C 34.722656 43.710938 33.433594 44.082031 32.167969 44.535156 C 30.902344 44.992188 29.675781 45.527344 28.480469 46.140625 C 27.285156 46.757812 26.136719 47.449219 25.035156 48.21875 C 23.929688 48.984375 22.882812 49.824219 21.890625 50.726562 C 20.898438 51.632812 19.96875 52.601562 19.101562 53.628906 C 18.238281 54.65625 17.441406 55.738281 16.71875 56.867188 L 30.472656 80.320312 "/></g><g clip-rule="nonzero" clip-path="url(#00dee06161)"><path style=" stroke:none;fill-rule:nonzero;fill:#4285f4;fill-opacity:1;" d="M 55.113281 73.378906 C 55.113281 74.207031 55.03125 75.023438 54.871094 75.832031 C 54.710938 76.640625 54.472656 77.425781 54.15625 78.1875 C 53.839844 78.949219 53.453125 79.675781 52.996094 80.359375 C 52.535156 81.046875 52.015625 81.679688 51.433594 82.265625 C 50.851562 82.847656 50.214844 83.367188 49.53125 83.828125 C 48.84375 84.285156 48.121094 84.671875 47.359375 84.988281 C 46.597656 85.304688 45.8125 85.542969 45.003906 85.703125 C 44.195312 85.863281 43.378906 85.945312 42.554688 85.945312 C 41.726562 85.945312 40.910156 85.863281 40.101562 85.703125 C 39.292969 85.542969 38.507812 85.304688 37.746094 84.988281 C 36.984375 84.671875 36.261719 84.285156 35.574219 83.828125 C 34.890625 83.367188 34.257812 82.847656 33.671875 82.265625 C 33.089844 81.679688 32.570312 81.046875 32.109375 80.359375 C 31.652344 79.675781 31.265625 78.949219 30.949219 78.1875 C 30.636719 77.425781 30.398438 76.640625 30.234375 75.832031 C 30.074219 75.023438 29.996094 74.207031 29.996094 73.378906 C 29.996094 72.554688 30.074219 71.738281 30.234375 70.929688 C 30.398438 70.121094 30.636719 69.335938 30.949219 68.574219 C 31.265625 67.8125 31.652344 67.085938 32.109375 66.402344 C 32.570312 65.714844 33.089844 65.082031 33.671875 64.496094 C 34.257812 63.914062 34.890625 63.394531 35.574219 62.933594 C 36.261719 62.476562 36.984375 62.089844 37.746094 61.773438 C 38.507812 61.457031 39.292969 61.21875 40.101562 61.058594 C 40.910156 60.898438 41.726562 60.816406 42.554688 60.816406 C 43.378906 60.816406 44.195312 60.898438 45.003906 61.058594 C 45.8125 61.21875 46.597656 61.457031 47.359375 61.773438 C 48.121094 62.089844 48.84375 62.476562 49.53125 62.933594 C 50.214844 63.394531 50.851562 63.914062 51.433594 64.496094 C 52.015625 65.082031 52.535156 65.714844 52.996094 66.402344 C 53.453125 67.085938 53.839844 67.8125 54.15625 68.574219 C 54.472656 69.335938 54.710938 70.121094 54.871094 70.929688 C 55.03125 71.738281 55.113281 72.554688 55.113281 73.378906 Z M 55.113281 73.378906 "/></g><g clip-rule="nonzero" clip-path="url(#9fdeecc500)"><path style="fill:none;stroke-width:24;stroke-linecap:butt;stroke-linejoin:miter;stroke:#f1f1f1;stroke-opacity:1;stroke-miterlimit:4;" d="M 361.014989 255.985234 C 361.014989 262.906523 360.329132 269.729869 358.990076 276.48792 C 357.651021 283.245971 355.658768 289.808137 353.013317 296.174417 C 350.367866 302.540697 347.134537 308.613148 343.31333 314.326476 C 339.459464 320.072452 335.115699 325.361362 330.249375 330.2585 C 325.383052 335.122991 320.059491 339.46512 314.34401 343.317536 C 308.59587 347.137304 302.553791 350.369415 296.185113 353.01387 C 289.816435 355.658325 283.251798 357.649828 276.491201 358.988379 C 269.730604 360.32693 262.904688 361.012529 256.013452 361.012529 C 249.089556 361.012529 242.263639 360.32693 235.503043 358.988379 C 228.742446 357.649828 222.177809 355.658325 215.809131 353.01387 C 209.440453 350.369415 203.398373 347.137304 197.650233 343.317536 C 191.934753 339.46512 186.643851 335.122991 181.744868 330.2585 C 176.878545 325.361362 172.53478 320.072452 168.680913 314.326476 C 164.859706 308.613148 161.626378 302.540697 158.980927 296.174417 C 156.368136 289.808137 154.375883 283.245971 153.004167 276.48792 C 151.665112 269.729869 151.011914 262.906523 151.011914 255.985234 C 151.011914 249.096593 151.665112 242.273246 153.004167 235.515195 C 154.375883 228.757144 156.368136 222.194979 158.980927 215.828699 C 161.626378 209.462419 164.859706 203.389967 168.680913 197.676639 C 172.53478 191.930664 176.878545 186.641754 181.744868 181.744616 C 186.643851 176.880125 191.934753 172.537995 197.650233 168.68558 C 203.398373 164.865812 209.440453 161.633701 215.809131 158.989246 C 222.177809 156.344791 228.742446 154.353288 235.503043 153.014737 C 242.263639 151.676186 249.089556 150.990586 256.013452 150.990586 C 262.904688 150.990586 269.730604 151.676186 276.491201 153.014737 C 283.251798 154.353288 289.816435 156.344791 296.185113 158.989246 C 302.553791 161.633701 308.59587 164.865812 314.34401 168.68558 C 320.059491 172.537995 325.383052 176.880125 330.249375 181.744616 C 335.115699 186.641754 339.459464 191.930664 343.31333 197.676639 C 347.134537 203.389967 350.367866 209.462419 353.013317 215.828699 C 355.658768 222.194979 357.651021 228.757144 358.990076 235.515195 C 360.329132 242.273246 361.014989 249.096593 361.014989 255.985234 Z M 361.014989 255.985234 " transform="matrix(0.119604,0,0,0.119649,11.934479,42.75054)"/></g><g transform="matrix(1,0,0,1,91,22)"><g clip-path="url(#400e300553)"><g style="fill:#000000;fill-opacity:1;"><g transform="translate(0.403817, 14.507897)"><path style="stroke:none" d="M 10.03125 -7.453125 L 8.71875 -7.453125 C 8.613281 -7.953125 8.410156 -8.375 8.109375 -8.71875 C 7.816406 -9.0625 7.457031 -9.320312 7.03125 -9.5 C 6.601562 -9.675781 6.148438 -9.765625 5.671875 -9.765625 C 5.015625 -9.765625 4.421875 -9.597656 3.890625 -9.265625 C 3.359375 -8.929688 2.9375 -8.441406 2.625 -7.796875 C 2.3125 -7.148438 2.15625 -6.359375 2.15625 -5.421875 C 2.15625 -4.484375 2.3125 -3.691406 2.625 -3.046875 C 2.9375 -2.398438 3.359375 -1.910156 3.890625 -1.578125 C 4.421875 -1.242188 5.015625 -1.078125 5.671875 -1.078125 C 6.148438 -1.078125 6.601562 -1.164062 7.03125 -1.34375 C 7.457031 -1.519531 7.816406 -1.78125 8.109375 -2.125 C 8.410156 -2.46875 8.613281 -2.890625 8.71875 -3.390625 L 10.03125 -3.390625 C 9.894531 -2.648438 9.617188 -2.015625 9.203125 -1.484375 C 8.796875 -0.953125 8.285156 -0.546875 7.671875 -0.265625 C 7.066406 0.00390625 6.398438 0.140625 5.671875 0.140625 C 4.742188 0.140625 3.921875 -0.0820312 3.203125 -0.53125 C 2.484375 -0.976562 1.914062 -1.617188 1.5 -2.453125 C 1.09375 -3.285156 0.890625 -4.273438 0.890625 -5.421875 C 0.890625 -6.566406 1.09375 -7.554688 1.5 -8.390625 C 1.914062 -9.222656 2.484375 -9.863281 3.203125 -10.3125 C 3.921875 -10.757812 4.742188 -10.984375 5.671875 -10.984375 C 6.398438 -10.984375 7.066406 -10.84375 7.671875 -10.5625 C 8.285156 -10.28125 8.796875 -9.875 9.203125 -9.34375 C 9.617188 -8.820312 9.894531 -8.191406 10.03125 -7.453125 Z M 10.03125 -7.453125 "/></g></g><g style="fill:#000000;fill-opacity:1;"><g transform="translate(11.238674, 14.507897)"><path style="stroke:none" d="M 4.453125 0.171875 C 3.710938 0.171875 3.066406 0 2.515625 -0.34375 C 1.960938 -0.695312 1.53125 -1.1875 1.21875 -1.8125 C 0.914062 -2.445312 0.765625 -3.179688 0.765625 -4.015625 C 0.765625 -4.867188 0.914062 -5.609375 1.21875 -6.234375 C 1.53125 -6.867188 1.960938 -7.359375 2.515625 -7.703125 C 3.066406 -8.054688 3.710938 -8.234375 4.453125 -8.234375 C 5.179688 -8.234375 5.820312 -8.054688 6.375 -7.703125 C 6.925781 -7.359375 7.351562 -6.867188 7.65625 -6.234375 C 7.96875 -5.609375 8.125 -4.867188 8.125 -4.015625 C 8.125 -3.179688 7.96875 -2.445312 7.65625 -1.8125 C 7.351562 -1.1875 6.925781 -0.695312 6.375 -0.34375 C 5.820312 0 5.179688 0.171875 4.453125 0.171875 Z M 4.453125 -0.953125 C 5.003906 -0.953125 5.457031 -1.09375 5.8125 -1.375 C 6.175781 -1.664062 6.441406 -2.039062 6.609375 -2.5 C 6.785156 -2.96875 6.875 -3.472656 6.875 -4.015625 C 6.875 -4.566406 6.785156 -5.078125 6.609375 -5.546875 C 6.441406 -6.015625 6.175781 -6.390625 5.8125 -6.671875 C 5.457031 -6.960938 5.003906 -7.109375 4.453125 -7.109375 C 3.890625 -7.109375 3.425781 -6.960938 3.0625 -6.671875 C 2.707031 -6.390625 2.441406 -6.015625 2.265625 -5.546875 C 2.097656 -5.078125 2.015625 -4.566406 2.015625 -4.015625 C 2.015625 -3.472656 2.097656 -2.96875 2.265625 -2.5 C 2.441406 -2.039062 2.707031 -1.664062 3.0625 -1.375 C 3.425781 -1.09375 3.890625 -0.953125 4.453125 -0.953125 Z M 4.453125 -0.953125 "/></g></g><g style="fill:#000000;fill-opacity:1;"><g transform="translate(20.126643, 14.507897)"><path style="stroke:none" d="M 1.140625 0 L 1.140625 -8.125 L 2.34375 -8.125 L 2.34375 -6.859375 L 2.453125 -6.859375 C 2.617188 -7.296875 2.890625 -7.632812 3.265625 -7.875 C 3.648438 -8.113281 4.109375 -8.234375 4.640625 -8.234375 C 5.171875 -8.234375 5.613281 -8.113281 5.96875 -7.875 C 6.332031 -7.632812 6.613281 -7.296875 6.8125 -6.859375 L 6.90625 -6.859375 C 7.113281 -7.273438 7.425781 -7.609375 7.84375 -7.859375 C 8.257812 -8.109375 8.757812 -8.234375 9.34375 -8.234375 C 10.0625 -8.234375 10.648438 -8.003906 11.109375 -7.546875 C 11.578125 -7.097656 11.8125 -6.394531 11.8125 -5.4375 L 11.8125 0 L 10.5625 0 L 10.5625 -5.4375 C 10.5625 -6.039062 10.394531 -6.46875 10.0625 -6.71875 C 9.738281 -6.976562 9.351562 -7.109375 8.90625 -7.109375 C 8.34375 -7.109375 7.898438 -6.9375 7.578125 -6.59375 C 7.265625 -6.25 7.109375 -5.816406 7.109375 -5.296875 L 7.109375 0 L 5.84375 0 L 5.84375 -5.5625 C 5.84375 -6.03125 5.691406 -6.40625 5.390625 -6.6875 C 5.085938 -6.96875 4.703125 -7.109375 4.234375 -7.109375 C 3.910156 -7.109375 3.609375 -7.019531 3.328125 -6.84375 C 3.046875 -6.675781 2.816406 -6.441406 2.640625 -6.140625 C 2.472656 -5.835938 2.390625 -5.484375 2.390625 -5.078125 L 2.390625 0 Z M 1.140625 0 "/></g></g><g style="fill:#000000;fill-opacity:1;"><g transform="translate(33.077684, 14.507897)"><path style="stroke:none" d="M 1.140625 0 L 1.140625 -8.125 L 2.390625 -8.125 L 2.390625 0 Z M 1.78125 -9.484375 C 1.53125 -9.484375 1.316406 -9.566406 1.140625 -9.734375 C 0.972656 -9.898438 0.890625 -10.097656 0.890625 -10.328125 C 0.890625 -10.566406 0.972656 -10.765625 1.140625 -10.921875 C 1.316406 -11.085938 1.53125 -11.171875 1.78125 -11.171875 C 2.019531 -11.171875 2.226562 -11.085938 2.40625 -10.921875 C 2.582031 -10.765625 2.671875 -10.566406 2.671875 -10.328125 C 2.671875 -10.097656 2.582031 -9.898438 2.40625 -9.734375 C 2.226562 -9.566406 2.019531 -9.484375 1.78125 -9.484375 Z M 1.78125 -9.484375 "/></g></g><g style="fill:#000000;fill-opacity:1;"><g transform="translate(36.611706, 14.507897)"><path style="stroke:none" d="M 2.390625 -4.890625 L 2.390625 0 L 1.140625 0 L 1.140625 -8.125 L 2.34375 -8.125 L 2.34375 -6.859375 L 2.453125 -6.859375 C 2.640625 -7.273438 2.925781 -7.609375 3.3125 -7.859375 C 3.707031 -8.109375 4.210938 -8.234375 4.828125 -8.234375 C 5.648438 -8.234375 6.3125 -7.976562 6.8125 -7.46875 C 7.320312 -6.96875 7.578125 -6.203125 7.578125 -5.171875 L 7.578125 0 L 6.328125 0 L 6.328125 -5.078125 C 6.328125 -5.722656 6.160156 -6.222656 5.828125 -6.578125 C 5.492188 -6.929688 5.039062 -7.109375 4.46875 -7.109375 C 3.875 -7.109375 3.378906 -6.914062 2.984375 -6.53125 C 2.585938 -6.144531 2.390625 -5.597656 2.390625 -4.890625 Z M 2.390625 -4.890625 "/></g></g><g style="fill:#000000;fill-opacity:1;"><g transform="translate(45.33038, 14.507897)"><path style="stroke:none" d="M 4.421875 3.21875 C 3.515625 3.21875 2.796875 3.050781 2.265625 2.71875 C 1.742188 2.394531 1.351562 2.019531 1.09375 1.59375 L 2.09375 0.890625 C 2.207031 1.035156 2.347656 1.203125 2.515625 1.390625 C 2.691406 1.585938 2.929688 1.757812 3.234375 1.90625 C 3.535156 2.050781 3.929688 2.125 4.421875 2.125 C 5.078125 2.125 5.617188 1.960938 6.046875 1.640625 C 6.472656 1.328125 6.6875 0.828125 6.6875 0.140625 L 6.6875 -1.5 L 6.578125 -1.5 C 6.492188 -1.351562 6.363281 -1.171875 6.1875 -0.953125 C 6.019531 -0.734375 5.78125 -0.539062 5.46875 -0.375 C 5.15625 -0.207031 4.738281 -0.125 4.21875 -0.125 C 3.5625 -0.125 2.972656 -0.28125 2.453125 -0.59375 C 1.929688 -0.90625 1.519531 -1.359375 1.21875 -1.953125 C 0.914062 -2.546875 0.765625 -3.265625 0.765625 -4.109375 C 0.765625 -4.941406 0.910156 -5.664062 1.203125 -6.28125 C 1.492188 -6.90625 1.898438 -7.382812 2.421875 -7.71875 C 2.941406 -8.0625 3.546875 -8.234375 4.234375 -8.234375 C 4.765625 -8.234375 5.1875 -8.144531 5.5 -7.96875 C 5.8125 -7.800781 6.050781 -7.601562 6.21875 -7.375 C 6.382812 -7.15625 6.515625 -6.976562 6.609375 -6.84375 L 6.734375 -6.84375 L 6.734375 -8.125 L 7.9375 -8.125 L 7.9375 0.234375 C 7.9375 0.929688 7.78125 1.5 7.46875 1.9375 C 7.15625 2.375 6.734375 2.695312 6.203125 2.90625 C 5.671875 3.113281 5.078125 3.21875 4.421875 3.21875 Z M 4.390625 -1.25 C 5.140625 -1.25 5.710938 -1.503906 6.109375 -2.015625 C 6.515625 -2.523438 6.71875 -3.226562 6.71875 -4.125 C 6.71875 -5.007812 6.519531 -5.726562 6.125 -6.28125 C 5.726562 -6.832031 5.148438 -7.109375 4.390625 -7.109375 C 3.859375 -7.109375 3.414062 -6.972656 3.0625 -6.703125 C 2.707031 -6.441406 2.441406 -6.082031 2.265625 -5.625 C 2.097656 -5.175781 2.015625 -4.675781 2.015625 -4.125 C 2.015625 -3.28125 2.210938 -2.585938 2.609375 -2.046875 C 3.003906 -1.515625 3.597656 -1.25 4.390625 -1.25 Z M 4.390625 -1.25 "/></g></g><g style="fill:#000000;fill-opacity:1;"><g transform="translate(54.408809, 14.507897)"><path style="stroke:none" d=""/></g></g><g style="fill:#000000;fill-opacity:1;"><g transform="translate(58.598857, 14.507897)"><path style="stroke:none" d="M 6.90625 -6.3125 L 5.78125 -5.984375 C 5.664062 -6.273438 5.476562 -6.539062 5.21875 -6.78125 C 4.96875 -7.03125 4.566406 -7.15625 4.015625 -7.15625 C 3.523438 -7.15625 3.113281 -7.039062 2.78125 -6.8125 C 2.445312 -6.582031 2.28125 -6.296875 2.28125 -5.953125 C 2.28125 -5.640625 2.394531 -5.390625 2.625 -5.203125 C 2.851562 -5.023438 3.207031 -4.878906 3.6875 -4.765625 L 4.890625 -4.46875 C 6.328125 -4.113281 7.046875 -3.378906 7.046875 -2.265625 C 7.046875 -1.796875 6.910156 -1.378906 6.640625 -1.015625 C 6.378906 -0.648438 6.007812 -0.359375 5.53125 -0.140625 C 5.0625 0.0664062 4.507812 0.171875 3.875 0.171875 C 3.039062 0.171875 2.351562 -0.00390625 1.8125 -0.359375 C 1.269531 -0.722656 0.925781 -1.253906 0.78125 -1.953125 L 1.96875 -2.25 C 2.1875 -1.375 2.816406 -0.9375 3.859375 -0.9375 C 4.441406 -0.9375 4.90625 -1.054688 5.25 -1.296875 C 5.59375 -1.546875 5.765625 -1.847656 5.765625 -2.203125 C 5.765625 -2.773438 5.359375 -3.15625 4.546875 -3.34375 L 3.203125 -3.65625 C 2.453125 -3.832031 1.898438 -4.109375 1.546875 -4.484375 C 1.203125 -4.859375 1.03125 -5.328125 1.03125 -5.890625 C 1.03125 -6.347656 1.160156 -6.753906 1.421875 -7.109375 C 1.679688 -7.460938 2.035156 -7.738281 2.484375 -7.9375 C 2.941406 -8.132812 3.453125 -8.234375 4.015625 -8.234375 C 4.828125 -8.234375 5.460938 -8.054688 5.921875 -7.703125 C 6.378906 -7.347656 6.707031 -6.882812 6.90625 -6.3125 Z M 6.90625 -6.3125 "/></g></g><g style="fill:#000000;fill-opacity:1;"><g transform="translate(66.386411, 14.507897)"><path style="stroke:none" d="M 4.453125 0.171875 C 3.710938 0.171875 3.066406 0 2.515625 -0.34375 C 1.960938 -0.695312 1.53125 -1.1875 1.21875 -1.8125 C 0.914062 -2.445312 0.765625 -3.179688 0.765625 -4.015625 C 0.765625 -4.867188 0.914062 -5.609375 1.21875 -6.234375 C 1.53125 -6.867188 1.960938 -7.359375 2.515625 -7.703125 C 3.066406 -8.054688 3.710938 -8.234375 4.453125 -8.234375 C 5.179688 -8.234375 5.820312 -8.054688 6.375 -7.703125 C 6.925781 -7.359375 7.351562 -6.867188 7.65625 -6.234375 C 7.96875 -5.609375 8.125 -4.867188 8.125 -4.015625 C 8.125 -3.179688 7.96875 -2.445312 7.65625 -1.8125 C 7.351562 -1.1875 6.925781 -0.695312 6.375 -0.34375 C 5.820312 0 5.179688 0.171875 4.453125 0.171875 Z M 4.453125 -0.953125 C 5.003906 -0.953125 5.457031 -1.09375 5.8125 -1.375 C 6.175781 -1.664062 6.441406 -2.039062 6.609375 -2.5 C 6.785156 -2.96875 6.875 -3.472656 6.875 -4.015625 C 6.875 -4.566406 6.785156 -5.078125 6.609375 -5.546875 C 6.441406 -6.015625 6.175781 -6.390625 5.8125 -6.671875 C 5.457031 -6.960938 5.003906 -7.109375 4.453125 -7.109375 C 3.890625 -7.109375 3.425781 -6.960938 3.0625 -6.671875 C 2.707031 -6.390625 2.441406 -6.015625 2.265625 -5.546875 C 2.097656 -5.078125 2.015625 -4.566406 2.015625 -4.015625 C 2.015625 -3.472656 2.097656 -2.96875 2.265625 -2.5 C 2.441406 -2.039062 2.707031 -1.664062 3.0625 -1.375 C 3.425781 -1.09375 3.890625 -0.953125 4.453125 -0.953125 Z M 4.453125 -0.953125 "/></g></g><g style="fill:#000000;fill-opacity:1;"><g transform="translate(75.27438, 14.507897)"><path style="stroke:none" d="M 4.453125 0.171875 C 3.710938 0.171875 3.066406 0 2.515625 -0.34375 C 1.960938 -0.695312 1.53125 -1.1875 1.21875 -1.8125 C 0.914062 -2.445312 0.765625 -3.179688 0.765625 -4.015625 C 0.765625 -4.867188 0.914062 -5.609375 1.21875 -6.234375 C 1.53125 -6.867188 1.960938 -7.359375 2.515625 -7.703125 C 3.066406 -8.054688 3.710938 -8.234375 4.453125 -8.234375 C 5.179688 -8.234375 5.820312 -8.054688 6.375 -7.703125 C 6.925781 -7.359375 7.351562 -6.867188 7.65625 -6.234375 C 7.96875 -5.609375 8.125 -4.867188 8.125 -4.015625 C 8.125 -3.179688 7.96875 -2.445312 7.65625 -1.8125 C 7.351562 -1.1875 6.925781 -0.695312 6.375 -0.34375 C 5.820312 0 5.179688 0.171875 4.453125 0.171875 Z M 4.453125 -0.953125 C 5.003906 -0.953125 5.457031 -1.09375 5.8125 -1.375 C 6.175781 -1.664062 6.441406 -2.039062 6.609375 -2.5 C 6.785156 -2.96875 6.875 -3.472656 6.875 -4.015625 C 6.875 -4.566406 6.785156 -5.078125 6.609375 -5.546875 C 6.441406 -6.015625 6.175781 -6.390625 5.8125 -6.671875 C 5.457031 -6.960938 5.003906 -7.109375 4.453125 -7.109375 C 3.890625 -7.109375 3.425781 -6.960938 3.0625 -6.671875 C 2.707031 -6.390625 2.441406 -6.015625 2.265625 -5.546875 C 2.097656 -5.078125 2.015625 -4.566406 2.015625 -4.015625 C 2.015625 -3.472656 2.097656 -2.96875 2.265625 -2.5 C 2.441406 -2.039062 2.707031 -1.664062 3.0625 -1.375 C 3.425781 -1.09375 3.890625 -0.953125 4.453125 -0.953125 Z M 4.453125 -0.953125 "/></g></g><g style="fill:#000000;fill-opacity:1;"><g transform="translate(84.162349, 14.507897)"><path style="stroke:none" d="M 2.390625 -4.890625 L 2.390625 0 L 1.140625 0 L 1.140625 -8.125 L 2.34375 -8.125 L 2.34375 -6.859375 L 2.453125 -6.859375 C 2.640625 -7.273438 2.925781 -7.609375 3.3125 -7.859375 C 3.707031 -8.109375 4.210938 -8.234375 4.828125 -8.234375 C 5.648438 -8.234375 6.3125 -7.976562 6.8125 -7.46875 C 7.320312 -6.96875 7.578125 -6.203125 7.578125 -5.171875 L 7.578125 0 L 6.328125 0 L 6.328125 -5.078125 C 6.328125 -5.722656 6.160156 -6.222656 5.828125 -6.578125 C 5.492188 -6.929688 5.039062 -7.109375 4.46875 -7.109375 C 3.875 -7.109375 3.378906 -6.914062 2.984375 -6.53125 C 2.585938 -6.144531 2.390625 -5.597656 2.390625 -4.890625 Z M 2.390625 -4.890625 "/></g></g><g style="fill:#000000;fill-opacity:1;"><g transform="translate(92.884556, 14.507897)"><path style="stroke:none" d=""/></g></g></g></g><g transform="matrix(1,0,0,1,91,41)"><g clip-path="url(#ca1f6d0fb7)"><g style="fill:#000000;fill-opacity:1;"><g transform="translate(0.403817, 20.657458)"><path style="stroke:none" d="M 15 -10.0625 L 11.6875 -10.0625 C 11.5625 -10.90625 11.195312 -11.570312 10.59375 -12.0625 C 10 -12.550781 9.253906 -12.796875 8.359375 -12.796875 C 7.160156 -12.796875 6.195312 -12.351562 5.46875 -11.46875 C 4.75 -10.59375 4.390625 -9.347656 4.390625 -7.734375 C 4.390625 -6.085938 4.753906 -4.832031 5.484375 -3.96875 C 6.210938 -3.113281 7.160156 -2.6875 8.328125 -2.6875 C 9.203125 -2.6875 9.941406 -2.910156 10.546875 -3.359375 C 11.148438 -3.816406 11.53125 -4.460938 11.6875 -5.296875 L 15 -5.28125 C 14.882812 -4.332031 14.546875 -3.4375 13.984375 -2.59375 C 13.429688 -1.757812 12.671875 -1.082031 11.703125 -0.5625 C 10.742188 -0.0390625 9.601562 0.21875 8.28125 0.21875 C 6.90625 0.21875 5.671875 -0.09375 4.578125 -0.71875 C 3.492188 -1.34375 2.640625 -2.25 2.015625 -3.4375 C 1.390625 -4.625 1.078125 -6.054688 1.078125 -7.734375 C 1.078125 -9.421875 1.394531 -10.859375 2.03125 -12.046875 C 2.664062 -13.234375 3.523438 -14.132812 4.609375 -14.75 C 5.703125 -15.375 6.925781 -15.6875 8.28125 -15.6875 C 9.476562 -15.6875 10.554688 -15.460938 11.515625 -15.015625 C 12.472656 -14.578125 13.257812 -13.9375 13.875 -13.09375 C 14.488281 -12.257812 14.863281 -11.25 15 -10.0625 Z M 15 -10.0625 "/></g></g><g style="fill:#000000;fill-opacity:1;"><g transform="translate(16.41359, 20.657458)"><path style="stroke:none" d="M 4.5 -6.703125 L 4.5 0 L 1.28125 0 L 1.28125 -15.484375 L 4.40625 -15.484375 L 4.40625 -9.5625 L 4.546875 -9.5625 C 4.816406 -10.25 5.242188 -10.785156 5.828125 -11.171875 C 6.410156 -11.566406 7.140625 -11.765625 8.015625 -11.765625 C 9.222656 -11.765625 10.191406 -11.375 10.921875 -10.59375 C 11.660156 -9.820312 12.03125 -8.753906 12.03125 -7.390625 L 12.03125 0 L 8.8125 0 L 8.8125 -6.8125 C 8.8125 -7.53125 8.628906 -8.085938 8.265625 -8.484375 C 7.898438 -8.878906 7.390625 -9.078125 6.734375 -9.078125 C 6.085938 -9.078125 5.554688 -8.867188 5.140625 -8.453125 C 4.722656 -8.046875 4.507812 -7.460938 4.5 -6.703125 Z M 4.5 -6.703125 "/></g></g><g style="fill:#000000;fill-opacity:1;"><g transform="translate(29.70216, 20.657458)"><path style="stroke:none" d="M 1.28125 0 L 1.28125 -11.609375 L 4.40625 -11.609375 L 4.40625 -9.578125 L 4.53125 -9.578125 C 4.738281 -10.296875 5.085938 -10.84375 5.578125 -11.21875 C 6.078125 -11.59375 6.65625 -11.78125 7.3125 -11.78125 C 7.625 -11.78125 7.910156 -11.738281 8.171875 -11.65625 C 8.441406 -11.582031 8.6875 -11.476562 8.90625 -11.34375 L 7.9375 -8.6875 C 7.78125 -8.757812 7.613281 -8.820312 7.4375 -8.875 C 7.257812 -8.9375 7.0625 -8.96875 6.84375 -8.96875 C 6.1875 -8.96875 5.632812 -8.742188 5.1875 -8.296875 C 4.738281 -7.847656 4.507812 -7.269531 4.5 -6.5625 L 4.5 0 Z M 1.28125 0 "/></g></g><g style="fill:#000000;fill-opacity:1;"><g transform="translate(38.825769, 20.657458)"><path style="stroke:none" d="M 6.53125 0.234375 C 5.351562 0.234375 4.335938 -0.015625 3.484375 -0.515625 C 2.628906 -1.023438 1.96875 -1.726562 1.5 -2.625 C 1.039062 -3.519531 0.8125 -4.566406 0.8125 -5.765625 C 0.8125 -6.960938 1.039062 -8.007812 1.5 -8.90625 C 1.96875 -9.800781 2.628906 -10.5 3.484375 -11 C 4.335938 -11.507812 5.351562 -11.765625 6.53125 -11.765625 C 7.707031 -11.765625 8.722656 -11.507812 9.578125 -11 C 10.429688 -10.5 11.085938 -9.800781 11.546875 -8.90625 C 12.015625 -8.007812 12.25 -6.960938 12.25 -5.765625 C 12.25 -4.566406 12.015625 -3.519531 11.546875 -2.625 C 11.085938 -1.726562 10.429688 -1.023438 9.578125 -0.515625 C 8.722656 -0.015625 7.707031 0.234375 6.53125 0.234375 Z M 6.546875 -2.265625 C 7.335938 -2.265625 7.9375 -2.597656 8.34375 -3.265625 C 8.757812 -3.929688 8.96875 -4.769531 8.96875 -5.78125 C 8.96875 -6.789062 8.757812 -7.628906 8.34375 -8.296875 C 7.9375 -8.960938 7.335938 -9.296875 6.546875 -9.296875 C 5.734375 -9.296875 5.117188 -8.960938 4.703125 -8.296875 C 4.296875 -7.628906 4.09375 -6.789062 4.09375 -5.78125 C 4.09375 -4.769531 4.296875 -3.929688 4.703125 -3.265625 C 5.117188 -2.597656 5.734375 -2.265625 6.546875 -2.265625 Z M 6.546875 -2.265625 "/></g></g><g style="fill:#000000;fill-opacity:1;"><g transform="translate(51.887568, 20.657458)"><path style="stroke:none" d="M 1.28125 0 L 1.28125 -11.609375 L 4.359375 -11.609375 L 4.359375 -9.5625 L 4.484375 -9.5625 C 4.734375 -10.25 5.140625 -10.785156 5.703125 -11.171875 C 6.265625 -11.566406 6.9375 -11.765625 7.71875 -11.765625 C 8.519531 -11.765625 9.195312 -11.566406 9.75 -11.171875 C 10.3125 -10.773438 10.6875 -10.238281 10.875 -9.5625 L 11 -9.5625 C 11.226562 -10.226562 11.65625 -10.757812 12.28125 -11.15625 C 12.90625 -11.5625 13.644531 -11.765625 14.5 -11.765625 C 15.582031 -11.765625 16.460938 -11.421875 17.140625 -10.734375 C 17.816406 -10.046875 18.15625 -9.070312 18.15625 -7.8125 L 18.15625 0 L 14.9375 0 L 14.9375 -7.171875 C 14.9375 -7.816406 14.765625 -8.300781 14.421875 -8.625 C 14.078125 -8.945312 13.648438 -9.109375 13.140625 -9.109375 C 12.554688 -9.109375 12.097656 -8.921875 11.765625 -8.546875 C 11.441406 -8.171875 11.28125 -7.6875 11.28125 -7.09375 L 11.28125 0 L 8.15625 0 L 8.15625 -7.234375 C 8.15625 -7.804688 7.992188 -8.257812 7.671875 -8.59375 C 7.347656 -8.9375 6.921875 -9.109375 6.390625 -9.109375 C 5.859375 -9.109375 5.410156 -8.910156 5.046875 -8.515625 C 4.679688 -8.128906 4.5 -7.613281 4.5 -6.96875 L 4.5 0 Z M 1.28125 0 "/></g></g><g style="fill:#000000;fill-opacity:1;"><g transform="translate(71.298855, 20.657458)"><path style="stroke:none" d="M 6.578125 0.234375 C 5.390625 0.234375 4.363281 -0.0078125 3.5 -0.5 C 2.632812 -0.988281 1.96875 -1.679688 1.5 -2.578125 C 1.039062 -3.472656 0.8125 -4.53125 0.8125 -5.75 C 0.8125 -6.945312 1.039062 -7.992188 1.5 -8.890625 C 1.96875 -9.796875 2.625 -10.5 3.46875 -11 C 4.3125 -11.507812 5.304688 -11.765625 6.453125 -11.765625 C 7.472656 -11.765625 8.394531 -11.546875 9.21875 -11.109375 C 10.039062 -10.671875 10.691406 -10.015625 11.171875 -9.140625 C 11.660156 -8.273438 11.90625 -7.179688 11.90625 -5.859375 L 11.90625 -4.984375 L 4 -4.984375 L 4 -4.96875 C 4 -4.101562 4.234375 -3.421875 4.703125 -2.921875 C 5.179688 -2.421875 5.820312 -2.171875 6.625 -2.171875 C 7.164062 -2.171875 7.628906 -2.285156 8.015625 -2.515625 C 8.410156 -2.742188 8.691406 -3.078125 8.859375 -3.515625 L 11.828125 -3.328125 C 11.609375 -2.242188 11.035156 -1.378906 10.109375 -0.734375 C 9.191406 -0.0859375 8.015625 0.234375 6.578125 0.234375 Z M 4 -6.96875 L 8.875 -6.96875 C 8.863281 -7.664062 8.640625 -8.238281 8.203125 -8.6875 C 7.765625 -9.132812 7.195312 -9.359375 6.5 -9.359375 C 5.78125 -9.359375 5.191406 -9.125 4.734375 -8.65625 C 4.273438 -8.195312 4.03125 -7.632812 4 -6.96875 Z M 4 -6.96875 "/></g></g><g style="fill:#000000;fill-opacity:1;"><g transform="translate(84.020506, 20.657458)"><path style="stroke:none" d=""/></g></g><g style="fill:#000000;fill-opacity:1;"><g transform="translate(88.956479, 20.657458)"><path style="stroke:none" d="M 4.828125 0 L 0.40625 -15.484375 L 3.96875 -15.484375 L 6.53125 -4.71875 L 6.671875 -4.71875 L 9.484375 -15.484375 L 12.546875 -15.484375 L 15.375 -4.703125 L 15.5 -4.703125 L 18.0625 -15.484375 L 21.640625 -15.484375 L 17.21875 0 L 14.03125 0 L 11.078125 -10.125 L 10.953125 -10.125 L 8.015625 0 Z M 4.828125 0 "/></g></g><g style="fill:#000000;fill-opacity:1;"><g transform="translate(111.005821, 20.657458)"><path style="stroke:none" d="M 6.578125 0.234375 C 5.390625 0.234375 4.363281 -0.0078125 3.5 -0.5 C 2.632812 -0.988281 1.96875 -1.679688 1.5 -2.578125 C 1.039062 -3.472656 0.8125 -4.53125 0.8125 -5.75 C 0.8125 -6.945312 1.039062 -7.992188 1.5 -8.890625 C 1.96875 -9.796875 2.625 -10.5 3.46875 -11 C 4.3125 -11.507812 5.304688 -11.765625 6.453125 -11.765625 C 7.472656 -11.765625 8.394531 -11.546875 9.21875 -11.109375 C 10.039062 -10.671875 10.691406 -10.015625 11.171875 -9.140625 C 11.660156 -8.273438 11.90625 -7.179688 11.90625 -5.859375 L 11.90625 -4.984375 L 4 -4.984375 L 4 -4.96875 C 4 -4.101562 4.234375 -3.421875 4.703125 -2.921875 C 5.179688 -2.421875 5.820312 -2.171875 6.625 -2.171875 C 7.164062 -2.171875 7.628906 -2.285156 8.015625 -2.515625 C 8.410156 -2.742188 8.691406 -3.078125 8.859375 -3.515625 L 11.828125 -3.328125 C 11.609375 -2.242188 11.035156 -1.378906 10.109375 -0.734375 C 9.191406 -0.0859375 8.015625 0.234375 6.578125 0.234375 Z M 4 -6.96875 L 8.875 -6.96875 C 8.863281 -7.664062 8.640625 -8.238281 8.203125 -8.6875 C 7.765625 -9.132812 7.195312 -9.359375 6.5 -9.359375 C 5.78125 -9.359375 5.191406 -9.125 4.734375 -8.65625 C 4.273438 -8.195312 4.03125 -7.632812 4 -6.96875 Z M 4 -6.96875 "/></g></g><g style="fill:#000000;fill-opacity:1;"><g transform="translate(123.727472, 20.657458)"><path style="stroke:none" d="M 1.34375 0 L 1.34375 -15.484375 L 4.5625 -15.484375 L 4.5625 -9.65625 L 4.65625 -9.65625 C 4.800781 -9.976562 5.007812 -10.296875 5.28125 -10.609375 C 5.550781 -10.929688 5.90625 -11.203125 6.34375 -11.421875 C 6.78125 -11.648438 7.320312 -11.765625 7.96875 -11.765625 C 8.820312 -11.765625 9.601562 -11.539062 10.3125 -11.09375 C 11.019531 -10.65625 11.585938 -9.992188 12.015625 -9.109375 C 12.453125 -8.222656 12.671875 -7.113281 12.671875 -5.78125 C 12.671875 -4.488281 12.457031 -3.394531 12.03125 -2.5 C 11.613281 -1.613281 11.050781 -0.941406 10.34375 -0.484375 C 9.632812 -0.0351562 8.835938 0.1875 7.953125 0.1875 C 7.328125 0.1875 6.796875 0.0820312 6.359375 -0.125 C 5.929688 -0.332031 5.578125 -0.59375 5.296875 -0.90625 C 5.023438 -1.21875 4.8125 -1.535156 4.65625 -1.859375 L 4.515625 -1.859375 L 4.515625 0 Z M 4.5 -5.796875 C 4.5 -4.765625 4.710938 -3.9375 5.140625 -3.3125 C 5.566406 -2.6875 6.164062 -2.375 6.9375 -2.375 C 7.726562 -2.375 8.332031 -2.691406 8.75 -3.328125 C 9.164062 -3.960938 9.375 -4.785156 9.375 -5.796875 C 9.375 -6.804688 9.164062 -7.625 8.75 -8.25 C 8.332031 -8.882812 7.726562 -9.203125 6.9375 -9.203125 C 6.15625 -9.203125 5.550781 -8.894531 5.125 -8.28125 C 4.707031 -7.664062 4.5 -6.835938 4.5 -5.796875 Z M 4.5 -5.796875 "/></g></g><g style="fill:#000000;fill-opacity:1;"><g transform="translate(137.250366, 20.657458)"><path style="stroke:none" d=""/></g></g><g style="fill:#000000;fill-opacity:1;"><g transform="translate(142.186339, 20.657458)"><path style="stroke:none" d="M 9.734375 -11.03125 C 9.679688 -11.632812 9.421875 -12.101562 8.953125 -12.4375 C 8.492188 -12.78125 7.875 -12.953125 7.09375 -12.953125 C 6.289062 -12.953125 5.675781 -12.785156 5.25 -12.453125 C 4.820312 -12.128906 4.609375 -11.71875 4.609375 -11.21875 C 4.597656 -10.664062 4.832031 -10.242188 5.3125 -9.953125 C 5.800781 -9.671875 6.382812 -9.453125 7.0625 -9.296875 L 8.453125 -8.96875 C 9.347656 -8.769531 10.144531 -8.476562 10.84375 -8.09375 C 11.539062 -7.707031 12.085938 -7.210938 12.484375 -6.609375 C 12.890625 -6.015625 13.09375 -5.285156 13.09375 -4.421875 C 13.082031 -3.003906 12.550781 -1.875 11.5 -1.03125 C 10.445312 -0.195312 8.972656 0.21875 7.078125 0.21875 C 5.203125 0.21875 3.703125 -0.207031 2.578125 -1.0625 C 1.460938 -1.914062 0.882812 -3.179688 0.84375 -4.859375 L 4.015625 -4.859375 C 4.066406 -4.085938 4.367188 -3.503906 4.921875 -3.109375 C 5.484375 -2.722656 6.191406 -2.53125 7.046875 -2.53125 C 7.878906 -2.53125 8.539062 -2.703125 9.03125 -3.046875 C 9.53125 -3.398438 9.78125 -3.859375 9.78125 -4.421875 C 9.78125 -4.953125 9.550781 -5.359375 9.09375 -5.640625 C 8.644531 -5.921875 8 -6.160156 7.15625 -6.359375 L 5.46875 -6.78125 C 4.164062 -7.09375 3.132812 -7.585938 2.375 -8.265625 C 1.625 -8.953125 1.25 -9.863281 1.25 -11 C 1.25 -11.9375 1.5 -12.753906 2 -13.453125 C 2.507812 -14.160156 3.207031 -14.707031 4.09375 -15.09375 C 4.976562 -15.488281 5.988281 -15.6875 7.125 -15.6875 C 8.269531 -15.6875 9.269531 -15.488281 10.125 -15.09375 C 10.988281 -14.707031 11.660156 -14.160156 12.140625 -13.453125 C 12.617188 -12.753906 12.863281 -11.945312 12.875 -11.03125 Z M 9.734375 -11.03125 "/></g></g><g style="fill:#000000;fill-opacity:1;"><g transform="translate(156.124976, 20.657458)"><path style="stroke:none" d="M 7.453125 -11.609375 L 7.453125 -9.1875 L 5.28125 -9.1875 L 5.28125 -3.5625 C 5.28125 -3.125 5.378906 -2.828125 5.578125 -2.671875 C 5.773438 -2.515625 6.035156 -2.4375 6.359375 -2.4375 C 6.515625 -2.4375 6.664062 -2.445312 6.8125 -2.46875 C 6.96875 -2.5 7.085938 -2.523438 7.171875 -2.546875 L 7.671875 -0.140625 C 7.503906 -0.0859375 7.273438 -0.03125 6.984375 0.03125 C 6.691406 0.101562 6.335938 0.144531 5.921875 0.15625 C 4.753906 0.207031 3.816406 -0.0390625 3.109375 -0.59375 C 2.398438 -1.15625 2.050781 -2.003906 2.0625 -3.140625 L 2.0625 -9.1875 L 0.46875 -9.1875 L 0.46875 -11.609375 L 2.0625 -11.609375 L 2.0625 -14.390625 L 5.28125 -14.390625 L 5.28125 -11.609375 Z M 7.453125 -11.609375 "/></g></g><g style="fill:#000000;fill-opacity:1;"><g transform="translate(164.394424, 20.657458)"><path style="stroke:none" d="M 6.53125 0.234375 C 5.351562 0.234375 4.335938 -0.015625 3.484375 -0.515625 C 2.628906 -1.023438 1.96875 -1.726562 1.5 -2.625 C 1.039062 -3.519531 0.8125 -4.566406 0.8125 -5.765625 C 0.8125 -6.960938 1.039062 -8.007812 1.5 -8.90625 C 1.96875 -9.800781 2.628906 -10.5 3.484375 -11 C 4.335938 -11.507812 5.351562 -11.765625 6.53125 -11.765625 C 7.707031 -11.765625 8.722656 -11.507812 9.578125 -11 C 10.429688 -10.5 11.085938 -9.800781 11.546875 -8.90625 C 12.015625 -8.007812 12.25 -6.960938 12.25 -5.765625 C 12.25 -4.566406 12.015625 -3.519531 11.546875 -2.625 C 11.085938 -1.726562 10.429688 -1.023438 9.578125 -0.515625 C 8.722656 -0.015625 7.707031 0.234375 6.53125 0.234375 Z M 6.546875 -2.265625 C 7.335938 -2.265625 7.9375 -2.597656 8.34375 -3.265625 C 8.757812 -3.929688 8.96875 -4.769531 8.96875 -5.78125 C 8.96875 -6.789062 8.757812 -7.628906 8.34375 -8.296875 C 7.9375 -8.960938 7.335938 -9.296875 6.546875 -9.296875 C 5.734375 -9.296875 5.117188 -8.960938 4.703125 -8.296875 C 4.296875 -7.628906 4.09375 -6.789062 4.09375 -5.78125 C 4.09375 -4.769531 4.296875 -3.929688 4.703125 -3.265625 C 5.117188 -2.597656 5.734375 -2.265625 6.546875 -2.265625 Z M 6.546875 -2.265625 "/></g></g><g style="fill:#000000;fill-opacity:1;"><g transform="translate(177.456223, 20.657458)"><path style="stroke:none" d="M 1.28125 0 L 1.28125 -11.609375 L 4.40625 -11.609375 L 4.40625 -9.578125 L 4.53125 -9.578125 C 4.738281 -10.296875 5.085938 -10.84375 5.578125 -11.21875 C 6.078125 -11.59375 6.65625 -11.78125 7.3125 -11.78125 C 7.625 -11.78125 7.910156 -11.738281 8.171875 -11.65625 C 8.441406 -11.582031 8.6875 -11.476562 8.90625 -11.34375 L 7.9375 -8.6875 C 7.78125 -8.757812 7.613281 -8.820312 7.4375 -8.875 C 7.257812 -8.9375 7.0625 -8.96875 6.84375 -8.96875 C 6.1875 -8.96875 5.632812 -8.742188 5.1875 -8.296875 C 4.738281 -7.847656 4.507812 -7.269531 4.5 -6.5625 L 4.5 0 Z M 1.28125 0 "/></g></g><g style="fill:#000000;fill-opacity:1;"><g transform="translate(186.579833, 20.657458)"><path style="stroke:none" d="M 6.578125 0.234375 C 5.390625 0.234375 4.363281 -0.0078125 3.5 -0.5 C 2.632812 -0.988281 1.96875 -1.679688 1.5 -2.578125 C 1.039062 -3.472656 0.8125 -4.53125 0.8125 -5.75 C 0.8125 -6.945312 1.039062 -7.992188 1.5 -8.890625 C 1.96875 -9.796875 2.625 -10.5 3.46875 -11 C 4.3125 -11.507812 5.304688 -11.765625 6.453125 -11.765625 C 7.472656 -11.765625 8.394531 -11.546875 9.21875 -11.109375 C 10.039062 -10.671875 10.691406 -10.015625 11.171875 -9.140625 C 11.660156 -8.273438 11.90625 -7.179688 11.90625 -5.859375 L 11.90625 -4.984375 L 4 -4.984375 L 4 -4.96875 C 4 -4.101562 4.234375 -3.421875 4.703125 -2.921875 C 5.179688 -2.421875 5.820312 -2.171875 6.625 -2.171875 C 7.164062 -2.171875 7.628906 -2.285156 8.015625 -2.515625 C 8.410156 -2.742188 8.691406 -3.078125 8.859375 -3.515625 L 11.828125 -3.328125 C 11.609375 -2.242188 11.035156 -1.378906 10.109375 -0.734375 C 9.191406 -0.0859375 8.015625 0.234375 6.578125 0.234375 Z M 4 -6.96875 L 8.875 -6.96875 C 8.863281 -7.664062 8.640625 -8.238281 8.203125 -8.6875 C 7.765625 -9.132812 7.195312 -9.359375 6.5 -9.359375 C 5.78125 -9.359375 5.191406 -9.125 4.734375 -8.65625 C 4.273438 -8.195312 4.03125 -7.632812 4 -6.96875 Z M 4 -6.96875 "/></g></g></g></g></g></svg>