<svg xmlns="http://www.w3.org/2000/svg" xmlns:xlink="http://www.w3.org/1999/xlink" width="408" zoomAndPan="magnify" viewBox="0 0 306 92.999996" height="124" preserveAspectRatio="xMidYMid meet" version="1.2"><defs><clipPath id="017c535922"><path d="M 0 0.890625 L 306 0.890625 L 306 80.109375 L 0 80.109375 Z M 0 0.890625 "/></clipPath><clipPath id="c3cbdd4508"><path d="M 17.25 0.890625 L 288.75 0.890625 C 293.324219 0.890625 297.710938 2.710938 300.949219 5.945312 C 304.183594 9.179688 306 13.566406 306 18.140625 L 306 62.859375 C 306 67.433594 304.183594 71.820312 300.949219 75.054688 C 297.710938 78.289062 293.324219 80.109375 288.75 80.109375 L 17.25 80.109375 C 12.675781 80.109375 8.289062 78.289062 5.050781 75.054688 C 1.816406 71.820312 0 67.433594 0 62.859375 L 0 18.140625 C 0 13.566406 1.816406 9.179688 5.050781 5.945312 C 8.289062 2.710938 12.675781 0.890625 17.25 0.890625 Z M 17.25 0.890625 "/></clipPath><clipPath id="24f1ac9541"><path d="M 0 0.890625 L 306 0.890625 L 306 80.109375 L 0 80.109375 Z M 0 0.890625 "/></clipPath><clipPath id="86d03c396a"><path d="M 17.25 0.890625 L 288.75 0.890625 C 293.324219 0.890625 297.710938 2.710938 300.949219 5.945312 C 304.183594 9.179688 306 13.566406 306 18.140625 L 306 62.859375 C 306 67.433594 304.183594 71.820312 300.949219 75.054688 C 297.710938 78.289062 293.324219 80.109375 288.75 80.109375 L 17.25 80.109375 C 12.675781 80.109375 8.289062 78.289062 5.050781 75.054688 C 1.816406 71.820312 0 67.433594 0 62.859375 L 0 18.140625 C 0 13.566406 1.816406 9.179688 5.050781 5.945312 C 8.289062 2.710938 12.675781 0.890625 17.25 0.890625 Z M 17.25 0.890625 "/></clipPath><clipPath id="ea802168fe"><rect x="0" width="306" y="0" height="81"/></clipPath><clipPath id="168484b8ca"><path d="M 7.664062 8.890625 L 79.777344 8.890625 L 79.777344 72.109375 L 7.664062 72.109375 Z M 7.664062 8.890625 "/></clipPath><clipPath id="196939ebea"><path d="M 13.664062 8.890625 L 73.671875 8.890625 C 75.261719 8.890625 76.789062 9.523438 77.914062 10.648438 C 79.039062 11.773438 79.671875 13.296875 79.671875 14.890625 L 79.671875 66.109375 C 79.671875 67.703125 79.039062 69.226562 77.914062 70.351562 C 76.789062 71.476562 75.261719 72.109375 73.671875 72.109375 L 13.664062 72.109375 C 12.074219 72.109375 10.546875 71.476562 9.421875 70.351562 C 8.296875 69.226562 7.664062 67.703125 7.664062 66.109375 L 7.664062 14.890625 C 7.664062 13.296875 8.296875 11.773438 9.421875 10.648438 C 10.546875 9.523438 12.074219 8.890625 13.664062 8.890625 Z M 13.664062 8.890625 "/></clipPath><clipPath id="55f4310e89"><path d="M 0.664062 0.890625 L 72.679688 0.890625 L 72.679688 64.109375 L 0.664062 64.109375 Z M 0.664062 0.890625 "/></clipPath><clipPath id="fe55209328"><path d="M 6.664062 0.890625 L 66.671875 0.890625 C 68.261719 0.890625 69.789062 1.523438 70.914062 2.648438 C 72.039062 3.773438 72.671875 5.296875 72.671875 6.890625 L 72.671875 58.109375 C 72.671875 59.703125 72.039062 61.226562 70.914062 62.351562 C 69.789062 63.476562 68.261719 64.109375 66.671875 64.109375 L 6.664062 64.109375 C 5.074219 64.109375 3.546875 63.476562 2.421875 62.351562 C 1.296875 61.226562 0.664062 59.703125 0.664062 58.109375 L 0.664062 6.890625 C 0.664062 5.296875 1.296875 3.773438 2.421875 2.648438 C 3.546875 1.523438 5.074219 0.890625 6.664062 0.890625 Z M 6.664062 0.890625 "/></clipPath><clipPath id="b48dc2a3fc"><rect x="0" width="73" y="0" height="65"/></clipPath><clipPath id="c30f747c76"><path d="M 28.816406 19.464844 L 56.257812 19.464844 L 56.257812 24.441406 L 28.816406 24.441406 Z M 28.816406 19.464844 "/></clipPath><clipPath id="f63c7ca0d7"><path d="M 31.304688 19.464844 L 53.753906 19.464844 C 54.414062 19.464844 55.046875 19.726562 55.515625 20.195312 C 55.980469 20.660156 56.242188 21.292969 56.242188 21.953125 C 56.242188 22.613281 55.980469 23.246094 55.515625 23.710938 C 55.046875 24.179688 54.414062 24.441406 53.753906 24.441406 L 31.304688 24.441406 C 30.644531 24.441406 30.011719 24.179688 29.542969 23.710938 C 29.078125 23.246094 28.816406 22.613281 28.816406 21.953125 C 28.816406 21.292969 29.078125 20.660156 29.542969 20.195312 C 30.011719 19.726562 30.644531 19.464844 31.304688 19.464844 Z M 31.304688 19.464844 "/></clipPath><clipPath id="5cb2b66b62"><path d="M 0.816406 0.464844 L 28.257812 0.464844 L 28.257812 5.441406 L 0.816406 5.441406 Z M 0.816406 0.464844 "/></clipPath><clipPath id="07835cc061"><path d="M 3.304688 0.464844 L 25.753906 0.464844 C 26.414062 0.464844 27.046875 0.726562 27.515625 1.195312 C 27.980469 1.660156 28.242188 2.292969 28.242188 2.953125 C 28.242188 3.613281 27.980469 4.246094 27.515625 4.710938 C 27.046875 5.179688 26.414062 5.441406 25.753906 5.441406 L 3.304688 5.441406 C 2.644531 5.441406 2.011719 5.179688 1.542969 4.710938 C 1.078125 4.246094 0.816406 3.613281 0.816406 2.953125 C 0.816406 2.292969 1.078125 1.660156 1.542969 1.195312 C 2.011719 0.726562 2.644531 0.464844 3.304688 0.464844 Z M 3.304688 0.464844 "/></clipPath><clipPath id="630b69a478"><rect x="0" width="29" y="0" height="6"/></clipPath><clipPath id="2060c3cd66"><path d="M 11 51 L 58 51 L 58 72.160156 L 11 72.160156 Z M 11 51 "/></clipPath><clipPath id="d16d6ca597"><path d="M 11 67 L 30 67 L 30 72.160156 L 11 72.160156 Z M 11 67 "/></clipPath><clipPath id="472552ea1a"><path d="M 54 37 L 73.359375 37 L 73.359375 72.160156 L 54 72.160156 Z M 54 37 "/></clipPath><clipPath id="3622155f68"><rect x="0" width="306" y="0" height="81"/></clipPath></defs><g id="ad5998ce32"><g transform="matrix(1,0,0,1,0,6)"><g clip-path="url(#3622155f68)"><g clip-rule="nonzero" clip-path="url(#017c535922)"><g clip-rule="nonzero" clip-path="url(#c3cbdd4508)"><g transform="matrix(1,0,0,1,0,0)"><g id="c58b1a918a" clip-path="url(#ea802168fe)"><g clip-rule="nonzero" clip-path="url(#24f1ac9541)"><g clip-rule="nonzero" clip-path="url(#86d03c396a)"><path style=" stroke:none;fill-rule:nonzero;fill:#e7e7e7;fill-opacity:1;" d="M 0 0.890625 L 306.03125 0.890625 L 306.03125 80.109375 L 0 80.109375 Z M 0 0.890625 "/></g></g></g></g></g></g><g clip-rule="nonzero" clip-path="url(#168484b8ca)"><g clip-rule="nonzero" clip-path="url(#196939ebea)"><g transform="matrix(1,0,0,1,7,8)"><g id="c5596880e9" clip-path="url(#b48dc2a3fc)"><g clip-rule="nonzero" clip-path="url(#55f4310e89)"><g clip-rule="nonzero" clip-path="url(#fe55209328)"><path style=" stroke:none;fill-rule:nonzero;fill:#ffffff;fill-opacity:1;" d="M 0.664062 0.890625 L 72.777344 0.890625 L 72.777344 64.109375 L 0.664062 64.109375 Z M 0.664062 0.890625 "/></g></g></g></g></g></g><g clip-rule="nonzero" clip-path="url(#c30f747c76)"><g clip-rule="nonzero" clip-path="url(#f63c7ca0d7)"><g transform="matrix(1,0,0,1,28,19)"><g id="f926c167db" clip-path="url(#630b69a478)"><g clip-rule="nonzero" clip-path="url(#5cb2b66b62)"><g clip-rule="nonzero" clip-path="url(#07835cc061)"><path style=" stroke:none;fill-rule:nonzero;fill:#000000;fill-opacity:1;" d="M 0.816406 0.464844 L 28.238281 0.464844 L 28.238281 5.441406 L 0.816406 5.441406 Z M 0.816406 0.464844 "/></g></g></g></g></g></g><g clip-rule="nonzero" clip-path="url(#2060c3cd66)"><path style=" stroke:none;fill-rule:nonzero;fill:#2489ca;fill-opacity:1;" d="M 11.785156 58.5 C 11.785156 58.5 10.277344 57.417969 12.085938 55.972656 L 16.300781 52.222656 C 16.300781 52.222656 17.507812 50.960938 18.785156 52.058594 L 57.695312 81.367188 L 57.695312 95.421875 C 57.695312 95.421875 57.675781 97.625 54.828125 97.382812 Z M 11.785156 58.5 "/></g><g clip-rule="nonzero" clip-path="url(#d16d6ca597)"><path style=" stroke:none;fill-rule:nonzero;fill:#1070b3;fill-opacity:1;" d="M 21.8125 67.558594 L 11.785156 76.628906 C 11.785156 76.628906 10.753906 77.390625 11.785156 78.753906 L 16.441406 82.96875 C 16.441406 82.96875 17.546875 84.148438 19.179688 82.804688 L 29.8125 74.785156 Z M 21.8125 67.558594 "/></g><path style=" stroke:none;fill-rule:nonzero;fill:#0877b9;fill-opacity:1;" d="M 39.421875 67.632812 L 57.8125 53.660156 L 57.695312 39.679688 C 57.695312 39.679688 56.910156 36.628906 54.289062 38.21875 L 29.8125 60.378906 Z M 39.421875 67.632812 "/><g clip-rule="nonzero" clip-path="url(#472552ea1a)"><path style=" stroke:none;fill-rule:nonzero;fill:#3c99d4;fill-opacity:1;" d="M 54.828125 97.402344 C 55.898438 98.488281 57.191406 98.132812 57.191406 98.132812 L 71.523438 91.105469 C 73.359375 89.863281 73.101562 88.316406 73.101562 88.316406 L 73.101562 46.359375 C 73.101562 44.515625 71.203125 43.875 71.203125 43.875 L 58.78125 37.917969 C 56.066406 36.25 54.289062 38.21875 54.289062 38.21875 C 54.289062 38.21875 56.574219 36.582031 57.695312 39.679688 L 57.695312 95.164062 C 57.695312 95.546875 57.613281 95.921875 57.449219 96.257812 C 57.121094 96.914062 56.414062 97.527344 54.710938 97.269531 Z M 54.828125 97.402344 "/></g><g style="fill:#010101;fill-opacity:1;"><g transform="translate(91.403802, 30.50789)"><path style="stroke:none" d="M 10.03125 -7.453125 L 8.71875 -7.453125 C 8.613281 -7.953125 8.410156 -8.375 8.109375 -8.71875 C 7.816406 -9.0625 7.457031 -9.320312 7.03125 -9.5 C 6.601562 -9.675781 6.148438 -9.765625 5.671875 -9.765625 C 5.015625 -9.765625 4.421875 -9.597656 3.890625 -9.265625 C 3.359375 -8.929688 2.9375 -8.441406 2.625 -7.796875 C 2.3125 -7.148438 2.15625 -6.359375 2.15625 -5.421875 C 2.15625 -4.484375 2.3125 -3.691406 2.625 -3.046875 C 2.9375 -2.398438 3.359375 -1.910156 3.890625 -1.578125 C 4.421875 -1.242188 5.015625 -1.078125 5.671875 -1.078125 C 6.148438 -1.078125 6.601562 -1.164062 7.03125 -1.34375 C 7.457031 -1.519531 7.816406 -1.78125 8.109375 -2.125 C 8.410156 -2.46875 8.613281 -2.890625 8.71875 -3.390625 L 10.03125 -3.390625 C 9.894531 -2.648438 9.617188 -2.015625 9.203125 -1.484375 C 8.796875 -0.953125 8.285156 -0.546875 7.671875 -0.265625 C 7.066406 0.00390625 6.398438 0.140625 5.671875 0.140625 C 4.742188 0.140625 3.921875 -0.0820312 3.203125 -0.53125 C 2.484375 -0.976562 1.914062 -1.617188 1.5 -2.453125 C 1.09375 -3.285156 0.890625 -4.273438 0.890625 -5.421875 C 0.890625 -6.566406 1.09375 -7.554688 1.5 -8.390625 C 1.914062 -9.222656 2.484375 -9.863281 3.203125 -10.3125 C 3.921875 -10.757812 4.742188 -10.984375 5.671875 -10.984375 C 6.398438 -10.984375 7.066406 -10.84375 7.671875 -10.5625 C 8.285156 -10.28125 8.796875 -9.875 9.203125 -9.34375 C 9.617188 -8.820312 9.894531 -8.191406 10.03125 -7.453125 Z M 10.03125 -7.453125 "/></g></g><g style="fill:#010101;fill-opacity:1;"><g transform="translate(102.238659, 30.50789)"><path style="stroke:none" d="M 4.453125 0.171875 C 3.710938 0.171875 3.066406 0 2.515625 -0.34375 C 1.960938 -0.695312 1.53125 -1.1875 1.21875 -1.8125 C 0.914062 -2.445312 0.765625 -3.179688 0.765625 -4.015625 C 0.765625 -4.867188 0.914062 -5.609375 1.21875 -6.234375 C 1.53125 -6.867188 1.960938 -7.359375 2.515625 -7.703125 C 3.066406 -8.054688 3.710938 -8.234375 4.453125 -8.234375 C 5.179688 -8.234375 5.820312 -8.054688 6.375 -7.703125 C 6.925781 -7.359375 7.351562 -6.867188 7.65625 -6.234375 C 7.96875 -5.609375 8.125 -4.867188 8.125 -4.015625 C 8.125 -3.179688 7.96875 -2.445312 7.65625 -1.8125 C 7.351562 -1.1875 6.925781 -0.695312 6.375 -0.34375 C 5.820312 0 5.179688 0.171875 4.453125 0.171875 Z M 4.453125 -0.953125 C 5.003906 -0.953125 5.457031 -1.09375 5.8125 -1.375 C 6.175781 -1.664062 6.441406 -2.039062 6.609375 -2.5 C 6.785156 -2.96875 6.875 -3.472656 6.875 -4.015625 C 6.875 -4.566406 6.785156 -5.078125 6.609375 -5.546875 C 6.441406 -6.015625 6.175781 -6.390625 5.8125 -6.671875 C 5.457031 -6.960938 5.003906 -7.109375 4.453125 -7.109375 C 3.890625 -7.109375 3.425781 -6.960938 3.0625 -6.671875 C 2.707031 -6.390625 2.441406 -6.015625 2.265625 -5.546875 C 2.097656 -5.078125 2.015625 -4.566406 2.015625 -4.015625 C 2.015625 -3.472656 2.097656 -2.96875 2.265625 -2.5 C 2.441406 -2.039062 2.707031 -1.664062 3.0625 -1.375 C 3.425781 -1.09375 3.890625 -0.953125 4.453125 -0.953125 Z M 4.453125 -0.953125 "/></g></g><g style="fill:#010101;fill-opacity:1;"><g transform="translate(111.126628, 30.50789)"><path style="stroke:none" d="M 1.140625 0 L 1.140625 -8.125 L 2.34375 -8.125 L 2.34375 -6.859375 L 2.453125 -6.859375 C 2.617188 -7.296875 2.890625 -7.632812 3.265625 -7.875 C 3.648438 -8.113281 4.109375 -8.234375 4.640625 -8.234375 C 5.171875 -8.234375 5.613281 -8.113281 5.96875 -7.875 C 6.332031 -7.632812 6.613281 -7.296875 6.8125 -6.859375 L 6.90625 -6.859375 C 7.113281 -7.273438 7.425781 -7.609375 7.84375 -7.859375 C 8.257812 -8.109375 8.757812 -8.234375 9.34375 -8.234375 C 10.0625 -8.234375 10.648438 -8.003906 11.109375 -7.546875 C 11.578125 -7.097656 11.8125 -6.394531 11.8125 -5.4375 L 11.8125 0 L 10.5625 0 L 10.5625 -5.4375 C 10.5625 -6.039062 10.394531 -6.46875 10.0625 -6.71875 C 9.738281 -6.976562 9.351562 -7.109375 8.90625 -7.109375 C 8.34375 -7.109375 7.898438 -6.9375 7.578125 -6.59375 C 7.265625 -6.25 7.109375 -5.816406 7.109375 -5.296875 L 7.109375 0 L 5.84375 0 L 5.84375 -5.5625 C 5.84375 -6.03125 5.691406 -6.40625 5.390625 -6.6875 C 5.085938 -6.96875 4.703125 -7.109375 4.234375 -7.109375 C 3.910156 -7.109375 3.609375 -7.019531 3.328125 -6.84375 C 3.046875 -6.675781 2.816406 -6.441406 2.640625 -6.140625 C 2.472656 -5.835938 2.390625 -5.484375 2.390625 -5.078125 L 2.390625 0 Z M 1.140625 0 "/></g></g><g style="fill:#010101;fill-opacity:1;"><g transform="translate(124.077668, 30.50789)"><path style="stroke:none" d="M 1.140625 0 L 1.140625 -8.125 L 2.390625 -8.125 L 2.390625 0 Z M 1.78125 -9.484375 C 1.53125 -9.484375 1.316406 -9.566406 1.140625 -9.734375 C 0.972656 -9.898438 0.890625 -10.097656 0.890625 -10.328125 C 0.890625 -10.566406 0.972656 -10.765625 1.140625 -10.921875 C 1.316406 -11.085938 1.53125 -11.171875 1.78125 -11.171875 C 2.019531 -11.171875 2.226562 -11.085938 2.40625 -10.921875 C 2.582031 -10.765625 2.671875 -10.566406 2.671875 -10.328125 C 2.671875 -10.097656 2.582031 -9.898438 2.40625 -9.734375 C 2.226562 -9.566406 2.019531 -9.484375 1.78125 -9.484375 Z M 1.78125 -9.484375 "/></g></g><g style="fill:#010101;fill-opacity:1;"><g transform="translate(127.611691, 30.50789)"><path style="stroke:none" d="M 2.390625 -4.890625 L 2.390625 0 L 1.140625 0 L 1.140625 -8.125 L 2.34375 -8.125 L 2.34375 -6.859375 L 2.453125 -6.859375 C 2.640625 -7.273438 2.925781 -7.609375 3.3125 -7.859375 C 3.707031 -8.109375 4.210938 -8.234375 4.828125 -8.234375 C 5.648438 -8.234375 6.3125 -7.976562 6.8125 -7.46875 C 7.320312 -6.96875 7.578125 -6.203125 7.578125 -5.171875 L 7.578125 0 L 6.328125 0 L 6.328125 -5.078125 C 6.328125 -5.722656 6.160156 -6.222656 5.828125 -6.578125 C 5.492188 -6.929688 5.039062 -7.109375 4.46875 -7.109375 C 3.875 -7.109375 3.378906 -6.914062 2.984375 -6.53125 C 2.585938 -6.144531 2.390625 -5.597656 2.390625 -4.890625 Z M 2.390625 -4.890625 "/></g></g><g style="fill:#010101;fill-opacity:1;"><g transform="translate(136.330365, 30.50789)"><path style="stroke:none" d="M 4.421875 3.21875 C 3.515625 3.21875 2.796875 3.050781 2.265625 2.71875 C 1.742188 2.394531 1.351562 2.019531 1.09375 1.59375 L 2.09375 0.890625 C 2.207031 1.035156 2.347656 1.203125 2.515625 1.390625 C 2.691406 1.585938 2.929688 1.757812 3.234375 1.90625 C 3.535156 2.050781 3.929688 2.125 4.421875 2.125 C 5.078125 2.125 5.617188 1.960938 6.046875 1.640625 C 6.472656 1.328125 6.6875 0.828125 6.6875 0.140625 L 6.6875 -1.5 L 6.578125 -1.5 C 6.492188 -1.351562 6.363281 -1.171875 6.1875 -0.953125 C 6.019531 -0.734375 5.78125 -0.539062 5.46875 -0.375 C 5.15625 -0.207031 4.738281 -0.125 4.21875 -0.125 C 3.5625 -0.125 2.972656 -0.28125 2.453125 -0.59375 C 1.929688 -0.90625 1.519531 -1.359375 1.21875 -1.953125 C 0.914062 -2.546875 0.765625 -3.265625 0.765625 -4.109375 C 0.765625 -4.941406 0.910156 -5.664062 1.203125 -6.28125 C 1.492188 -6.90625 1.898438 -7.382812 2.421875 -7.71875 C 2.941406 -8.0625 3.546875 -8.234375 4.234375 -8.234375 C 4.765625 -8.234375 5.1875 -8.144531 5.5 -7.96875 C 5.8125 -7.800781 6.050781 -7.601562 6.21875 -7.375 C 6.382812 -7.15625 6.515625 -6.976562 6.609375 -6.84375 L 6.734375 -6.84375 L 6.734375 -8.125 L 7.9375 -8.125 L 7.9375 0.234375 C 7.9375 0.929688 7.78125 1.5 7.46875 1.9375 C 7.15625 2.375 6.734375 2.695312 6.203125 2.90625 C 5.671875 3.113281 5.078125 3.21875 4.421875 3.21875 Z M 4.390625 -1.25 C 5.140625 -1.25 5.710938 -1.503906 6.109375 -2.015625 C 6.515625 -2.523438 6.71875 -3.226562 6.71875 -4.125 C 6.71875 -5.007812 6.519531 -5.726562 6.125 -6.28125 C 5.726562 -6.832031 5.148438 -7.109375 4.390625 -7.109375 C 3.859375 -7.109375 3.414062 -6.972656 3.0625 -6.703125 C 2.707031 -6.441406 2.441406 -6.082031 2.265625 -5.625 C 2.097656 -5.175781 2.015625 -4.675781 2.015625 -4.125 C 2.015625 -3.28125 2.210938 -2.585938 2.609375 -2.046875 C 3.003906 -1.515625 3.597656 -1.25 4.390625 -1.25 Z M 4.390625 -1.25 "/></g></g><g style="fill:#010101;fill-opacity:1;"><g transform="translate(145.408794, 30.50789)"><path style="stroke:none" d=""/></g></g><g style="fill:#010101;fill-opacity:1;"><g transform="translate(149.598842, 30.50789)"><path style="stroke:none" d="M 6.90625 -6.3125 L 5.78125 -5.984375 C 5.664062 -6.273438 5.476562 -6.539062 5.21875 -6.78125 C 4.96875 -7.03125 4.566406 -7.15625 4.015625 -7.15625 C 3.523438 -7.15625 3.113281 -7.039062 2.78125 -6.8125 C 2.445312 -6.582031 2.28125 -6.296875 2.28125 -5.953125 C 2.28125 -5.640625 2.394531 -5.390625 2.625 -5.203125 C 2.851562 -5.023438 3.207031 -4.878906 3.6875 -4.765625 L 4.890625 -4.46875 C 6.328125 -4.113281 7.046875 -3.378906 7.046875 -2.265625 C 7.046875 -1.796875 6.910156 -1.378906 6.640625 -1.015625 C 6.378906 -0.648438 6.007812 -0.359375 5.53125 -0.140625 C 5.0625 0.0664062 4.507812 0.171875 3.875 0.171875 C 3.039062 0.171875 2.351562 -0.00390625 1.8125 -0.359375 C 1.269531 -0.722656 0.925781 -1.253906 0.78125 -1.953125 L 1.96875 -2.25 C 2.1875 -1.375 2.816406 -0.9375 3.859375 -0.9375 C 4.441406 -0.9375 4.90625 -1.054688 5.25 -1.296875 C 5.59375 -1.546875 5.765625 -1.847656 5.765625 -2.203125 C 5.765625 -2.773438 5.359375 -3.15625 4.546875 -3.34375 L 3.203125 -3.65625 C 2.453125 -3.832031 1.898438 -4.109375 1.546875 -4.484375 C 1.203125 -4.859375 1.03125 -5.328125 1.03125 -5.890625 C 1.03125 -6.347656 1.160156 -6.753906 1.421875 -7.109375 C 1.679688 -7.460938 2.035156 -7.738281 2.484375 -7.9375 C 2.941406 -8.132812 3.453125 -8.234375 4.015625 -8.234375 C 4.828125 -8.234375 5.460938 -8.054688 5.921875 -7.703125 C 6.378906 -7.347656 6.707031 -6.882812 6.90625 -6.3125 Z M 6.90625 -6.3125 "/></g></g><g style="fill:#010101;fill-opacity:1;"><g transform="translate(157.386396, 30.50789)"><path style="stroke:none" d="M 4.453125 0.171875 C 3.710938 0.171875 3.066406 0 2.515625 -0.34375 C 1.960938 -0.695312 1.53125 -1.1875 1.21875 -1.8125 C 0.914062 -2.445312 0.765625 -3.179688 0.765625 -4.015625 C 0.765625 -4.867188 0.914062 -5.609375 1.21875 -6.234375 C 1.53125 -6.867188 1.960938 -7.359375 2.515625 -7.703125 C 3.066406 -8.054688 3.710938 -8.234375 4.453125 -8.234375 C 5.179688 -8.234375 5.820312 -8.054688 6.375 -7.703125 C 6.925781 -7.359375 7.351562 -6.867188 7.65625 -6.234375 C 7.96875 -5.609375 8.125 -4.867188 8.125 -4.015625 C 8.125 -3.179688 7.96875 -2.445312 7.65625 -1.8125 C 7.351562 -1.1875 6.925781 -0.695312 6.375 -0.34375 C 5.820312 0 5.179688 0.171875 4.453125 0.171875 Z M 4.453125 -0.953125 C 5.003906 -0.953125 5.457031 -1.09375 5.8125 -1.375 C 6.175781 -1.664062 6.441406 -2.039062 6.609375 -2.5 C 6.785156 -2.96875 6.875 -3.472656 6.875 -4.015625 C 6.875 -4.566406 6.785156 -5.078125 6.609375 -5.546875 C 6.441406 -6.015625 6.175781 -6.390625 5.8125 -6.671875 C 5.457031 -6.960938 5.003906 -7.109375 4.453125 -7.109375 C 3.890625 -7.109375 3.425781 -6.960938 3.0625 -6.671875 C 2.707031 -6.390625 2.441406 -6.015625 2.265625 -5.546875 C 2.097656 -5.078125 2.015625 -4.566406 2.015625 -4.015625 C 2.015625 -3.472656 2.097656 -2.96875 2.265625 -2.5 C 2.441406 -2.039062 2.707031 -1.664062 3.0625 -1.375 C 3.425781 -1.09375 3.890625 -0.953125 4.453125 -0.953125 Z M 4.453125 -0.953125 "/></g></g><g style="fill:#010101;fill-opacity:1;"><g transform="translate(166.274365, 30.50789)"><path style="stroke:none" d="M 4.453125 0.171875 C 3.710938 0.171875 3.066406 0 2.515625 -0.34375 C 1.960938 -0.695312 1.53125 -1.1875 1.21875 -1.8125 C 0.914062 -2.445312 0.765625 -3.179688 0.765625 -4.015625 C 0.765625 -4.867188 0.914062 -5.609375 1.21875 -6.234375 C 1.53125 -6.867188 1.960938 -7.359375 2.515625 -7.703125 C 3.066406 -8.054688 3.710938 -8.234375 4.453125 -8.234375 C 5.179688 -8.234375 5.820312 -8.054688 6.375 -7.703125 C 6.925781 -7.359375 7.351562 -6.867188 7.65625 -6.234375 C 7.96875 -5.609375 8.125 -4.867188 8.125 -4.015625 C 8.125 -3.179688 7.96875 -2.445312 7.65625 -1.8125 C 7.351562 -1.1875 6.925781 -0.695312 6.375 -0.34375 C 5.820312 0 5.179688 0.171875 4.453125 0.171875 Z M 4.453125 -0.953125 C 5.003906 -0.953125 5.457031 -1.09375 5.8125 -1.375 C 6.175781 -1.664062 6.441406 -2.039062 6.609375 -2.5 C 6.785156 -2.96875 6.875 -3.472656 6.875 -4.015625 C 6.875 -4.566406 6.785156 -5.078125 6.609375 -5.546875 C 6.441406 -6.015625 6.175781 -6.390625 5.8125 -6.671875 C 5.457031 -6.960938 5.003906 -7.109375 4.453125 -7.109375 C 3.890625 -7.109375 3.425781 -6.960938 3.0625 -6.671875 C 2.707031 -6.390625 2.441406 -6.015625 2.265625 -5.546875 C 2.097656 -5.078125 2.015625 -4.566406 2.015625 -4.015625 C 2.015625 -3.472656 2.097656 -2.96875 2.265625 -2.5 C 2.441406 -2.039062 2.707031 -1.664062 3.0625 -1.375 C 3.425781 -1.09375 3.890625 -0.953125 4.453125 -0.953125 Z M 4.453125 -0.953125 "/></g></g><g style="fill:#010101;fill-opacity:1;"><g transform="translate(175.162333, 30.50789)"><path style="stroke:none" d="M 2.390625 -4.890625 L 2.390625 0 L 1.140625 0 L 1.140625 -8.125 L 2.34375 -8.125 L 2.34375 -6.859375 L 2.453125 -6.859375 C 2.640625 -7.273438 2.925781 -7.609375 3.3125 -7.859375 C 3.707031 -8.109375 4.210938 -8.234375 4.828125 -8.234375 C 5.648438 -8.234375 6.3125 -7.976562 6.8125 -7.46875 C 7.320312 -6.96875 7.578125 -6.203125 7.578125 -5.171875 L 7.578125 0 L 6.328125 0 L 6.328125 -5.078125 C 6.328125 -5.722656 6.160156 -6.222656 5.828125 -6.578125 C 5.492188 -6.929688 5.039062 -7.109375 4.46875 -7.109375 C 3.875 -7.109375 3.378906 -6.914062 2.984375 -6.53125 C 2.585938 -6.144531 2.390625 -5.597656 2.390625 -4.890625 Z M 2.390625 -4.890625 "/></g></g><g style="fill:#010101;fill-opacity:1;"><g transform="translate(93.050788, 56.933629)"><path style="stroke:none" d="M 4.140625 -15.484375 L 7.875 -3.71875 L 8.03125 -3.71875 L 11.78125 -15.484375 L 15.40625 -15.484375 L 10.0625 0 L 5.84375 0 L 0.5 -15.484375 Z M 4.140625 -15.484375 "/></g></g><g style="fill:#010101;fill-opacity:1;"><g transform="translate(108.969858, 56.933629)"><path style="stroke:none" d="M 9.734375 -11.03125 C 9.679688 -11.632812 9.421875 -12.101562 8.953125 -12.4375 C 8.492188 -12.78125 7.875 -12.953125 7.09375 -12.953125 C 6.289062 -12.953125 5.675781 -12.785156 5.25 -12.453125 C 4.820312 -12.128906 4.609375 -11.71875 4.609375 -11.21875 C 4.597656 -10.664062 4.832031 -10.242188 5.3125 -9.953125 C 5.800781 -9.671875 6.382812 -9.453125 7.0625 -9.296875 L 8.453125 -8.96875 C 9.347656 -8.769531 10.144531 -8.476562 10.84375 -8.09375 C 11.539062 -7.707031 12.085938 -7.210938 12.484375 -6.609375 C 12.890625 -6.015625 13.09375 -5.285156 13.09375 -4.421875 C 13.082031 -3.003906 12.550781 -1.875 11.5 -1.03125 C 10.445312 -0.195312 8.972656 0.21875 7.078125 0.21875 C 5.203125 0.21875 3.703125 -0.207031 2.578125 -1.0625 C 1.460938 -1.914062 0.882812 -3.179688 0.84375 -4.859375 L 4.015625 -4.859375 C 4.066406 -4.085938 4.367188 -3.503906 4.921875 -3.109375 C 5.484375 -2.722656 6.191406 -2.53125 7.046875 -2.53125 C 7.878906 -2.53125 8.539062 -2.703125 9.03125 -3.046875 C 9.53125 -3.398438 9.78125 -3.859375 9.78125 -4.421875 C 9.78125 -4.953125 9.550781 -5.359375 9.09375 -5.640625 C 8.644531 -5.921875 8 -6.160156 7.15625 -6.359375 L 5.46875 -6.78125 C 4.164062 -7.09375 3.132812 -7.585938 2.375 -8.265625 C 1.625 -8.953125 1.25 -9.863281 1.25 -11 C 1.25 -11.9375 1.5 -12.753906 2 -13.453125 C 2.507812 -14.160156 3.207031 -14.707031 4.09375 -15.09375 C 4.976562 -15.488281 5.988281 -15.6875 7.125 -15.6875 C 8.269531 -15.6875 9.269531 -15.488281 10.125 -15.09375 C 10.988281 -14.707031 11.660156 -14.160156 12.140625 -13.453125 C 12.617188 -12.753906 12.863281 -11.945312 12.875 -11.03125 Z M 9.734375 -11.03125 "/></g></g><g style="fill:#010101;fill-opacity:1;"><g transform="translate(122.908495, 56.933629)"><path style="stroke:none" d=""/></g></g><g style="fill:#010101;fill-opacity:1;"><g transform="translate(127.844468, 56.933629)"><path style="stroke:none" d="M 15 -10.0625 L 11.6875 -10.0625 C 11.5625 -10.90625 11.195312 -11.570312 10.59375 -12.0625 C 10 -12.550781 9.253906 -12.796875 8.359375 -12.796875 C 7.160156 -12.796875 6.195312 -12.351562 5.46875 -11.46875 C 4.75 -10.59375 4.390625 -9.347656 4.390625 -7.734375 C 4.390625 -6.085938 4.753906 -4.832031 5.484375 -3.96875 C 6.210938 -3.113281 7.160156 -2.6875 8.328125 -2.6875 C 9.203125 -2.6875 9.941406 -2.910156 10.546875 -3.359375 C 11.148438 -3.816406 11.53125 -4.460938 11.6875 -5.296875 L 15 -5.28125 C 14.882812 -4.332031 14.546875 -3.4375 13.984375 -2.59375 C 13.429688 -1.757812 12.671875 -1.082031 11.703125 -0.5625 C 10.742188 -0.0390625 9.601562 0.21875 8.28125 0.21875 C 6.90625 0.21875 5.671875 -0.09375 4.578125 -0.71875 C 3.492188 -1.34375 2.640625 -2.25 2.015625 -3.4375 C 1.390625 -4.625 1.078125 -6.054688 1.078125 -7.734375 C 1.078125 -9.421875 1.394531 -10.859375 2.03125 -12.046875 C 2.664062 -13.234375 3.523438 -14.132812 4.609375 -14.75 C 5.703125 -15.375 6.925781 -15.6875 8.28125 -15.6875 C 9.476562 -15.6875 10.554688 -15.460938 11.515625 -15.015625 C 12.472656 -14.578125 13.257812 -13.9375 13.875 -13.09375 C 14.488281 -12.257812 14.863281 -11.25 15 -10.0625 Z M 15 -10.0625 "/></g></g><g style="fill:#010101;fill-opacity:1;"><g transform="translate(143.854241, 56.933629)"><path style="stroke:none" d="M 6.53125 0.234375 C 5.351562 0.234375 4.335938 -0.015625 3.484375 -0.515625 C 2.628906 -1.023438 1.96875 -1.726562 1.5 -2.625 C 1.039062 -3.519531 0.8125 -4.566406 0.8125 -5.765625 C 0.8125 -6.960938 1.039062 -8.007812 1.5 -8.90625 C 1.96875 -9.800781 2.628906 -10.5 3.484375 -11 C 4.335938 -11.507812 5.351562 -11.765625 6.53125 -11.765625 C 7.707031 -11.765625 8.722656 -11.507812 9.578125 -11 C 10.429688 -10.5 11.085938 -9.800781 11.546875 -8.90625 C 12.015625 -8.007812 12.25 -6.960938 12.25 -5.765625 C 12.25 -4.566406 12.015625 -3.519531 11.546875 -2.625 C 11.085938 -1.726562 10.429688 -1.023438 9.578125 -0.515625 C 8.722656 -0.015625 7.707031 0.234375 6.53125 0.234375 Z M 6.546875 -2.265625 C 7.335938 -2.265625 7.9375 -2.597656 8.34375 -3.265625 C 8.757812 -3.929688 8.96875 -4.769531 8.96875 -5.78125 C 8.96875 -6.789062 8.757812 -7.628906 8.34375 -8.296875 C 7.9375 -8.960938 7.335938 -9.296875 6.546875 -9.296875 C 5.734375 -9.296875 5.117188 -8.960938 4.703125 -8.296875 C 4.296875 -7.628906 4.09375 -6.789062 4.09375 -5.78125 C 4.09375 -4.769531 4.296875 -3.929688 4.703125 -3.265625 C 5.117188 -2.597656 5.734375 -2.265625 6.546875 -2.265625 Z M 6.546875 -2.265625 "/></g></g><g style="fill:#010101;fill-opacity:1;"><g transform="translate(156.916041, 56.933629)"><path style="stroke:none" d="M 5.5625 0.1875 C 4.675781 0.1875 3.878906 -0.0351562 3.171875 -0.484375 C 2.460938 -0.941406 1.898438 -1.613281 1.484375 -2.5 C 1.066406 -3.394531 0.859375 -4.488281 0.859375 -5.78125 C 0.859375 -7.113281 1.070312 -8.222656 1.5 -9.109375 C 1.925781 -9.992188 2.492188 -10.65625 3.203125 -11.09375 C 3.921875 -11.539062 4.703125 -11.765625 5.546875 -11.765625 C 6.203125 -11.765625 6.75 -11.648438 7.1875 -11.421875 C 7.625 -11.203125 7.972656 -10.929688 8.234375 -10.609375 C 8.503906 -10.296875 8.710938 -9.976562 8.859375 -9.65625 L 8.953125 -9.65625 L 8.953125 -15.484375 L 12.171875 -15.484375 L 12.171875 0 L 9 0 L 9 -1.859375 L 8.859375 -1.859375 C 8.710938 -1.535156 8.5 -1.21875 8.21875 -0.90625 C 7.945312 -0.59375 7.59375 -0.332031 7.15625 -0.125 C 6.71875 0.0820312 6.1875 0.1875 5.5625 0.1875 Z M 6.578125 -2.375 C 7.359375 -2.375 7.957031 -2.6875 8.375 -3.3125 C 8.800781 -3.9375 9.015625 -4.765625 9.015625 -5.796875 C 9.015625 -6.835938 8.800781 -7.664062 8.375 -8.28125 C 7.957031 -8.894531 7.359375 -9.203125 6.578125 -9.203125 C 5.785156 -9.203125 5.179688 -8.882812 4.765625 -8.25 C 4.347656 -7.625 4.140625 -6.804688 4.140625 -5.796875 C 4.140625 -4.785156 4.347656 -3.960938 4.765625 -3.328125 C 5.179688 -2.691406 5.785156 -2.375 6.578125 -2.375 Z M 6.578125 -2.375 "/></g></g><g style="fill:#010101;fill-opacity:1;"><g transform="translate(170.438935, 56.933629)"><path style="stroke:none" d="M 6.578125 0.234375 C 5.390625 0.234375 4.363281 -0.0078125 3.5 -0.5 C 2.632812 -0.988281 1.96875 -1.679688 1.5 -2.578125 C 1.039062 -3.472656 0.8125 -4.53125 0.8125 -5.75 C 0.8125 -6.945312 1.039062 -7.992188 1.5 -8.890625 C 1.96875 -9.796875 2.625 -10.5 3.46875 -11 C 4.3125 -11.507812 5.304688 -11.765625 6.453125 -11.765625 C 7.472656 -11.765625 8.394531 -11.546875 9.21875 -11.109375 C 10.039062 -10.671875 10.691406 -10.015625 11.171875 -9.140625 C 11.660156 -8.273438 11.90625 -7.179688 11.90625 -5.859375 L 11.90625 -4.984375 L 4 -4.984375 L 4 -4.96875 C 4 -4.101562 4.234375 -3.421875 4.703125 -2.921875 C 5.179688 -2.421875 5.820312 -2.171875 6.625 -2.171875 C 7.164062 -2.171875 7.628906 -2.285156 8.015625 -2.515625 C 8.410156 -2.742188 8.691406 -3.078125 8.859375 -3.515625 L 11.828125 -3.328125 C 11.609375 -2.242188 11.035156 -1.378906 10.109375 -0.734375 C 9.191406 -0.0859375 8.015625 0.234375 6.578125 0.234375 Z M 4 -6.96875 L 8.875 -6.96875 C 8.863281 -7.664062 8.640625 -8.238281 8.203125 -8.6875 C 7.765625 -9.132812 7.195312 -9.359375 6.5 -9.359375 C 5.78125 -9.359375 5.191406 -9.125 4.734375 -8.65625 C 4.273438 -8.195312 4.03125 -7.632812 4 -6.96875 Z M 4 -6.96875 "/></g></g><g style="fill:#010101;fill-opacity:1;"><g transform="translate(183.160585, 56.933629)"><path style="stroke:none" d=""/></g></g><g style="fill:#010101;fill-opacity:1;"><g transform="translate(188.096559, 56.933629)"><path style="stroke:none" d="M 1.34375 0 L 1.34375 -15.484375 L 11.78125 -15.484375 L 11.78125 -12.78125 L 4.625 -12.78125 L 4.625 -9.09375 L 11.234375 -9.09375 L 11.234375 -6.390625 L 4.625 -6.390625 L 4.625 -2.703125 L 11.796875 -2.703125 L 11.796875 0 Z M 1.34375 0 "/></g></g><g style="fill:#010101;fill-opacity:1;"><g transform="translate(201.135682, 56.933629)"><path style="stroke:none" d="M 3.96875 -11.609375 L 6.109375 -7.546875 L 8.296875 -11.609375 L 11.59375 -11.609375 L 8.234375 -5.796875 L 11.6875 0 L 8.390625 0 L 6.109375 -4.015625 L 3.859375 0 L 0.53125 0 L 3.96875 -5.796875 L 0.65625 -11.609375 Z M 3.96875 -11.609375 "/></g></g><g style="fill:#010101;fill-opacity:1;"><g transform="translate(213.350887, 56.933629)"><path style="stroke:none" d="M 7.453125 -11.609375 L 7.453125 -9.1875 L 5.28125 -9.1875 L 5.28125 -3.5625 C 5.28125 -3.125 5.378906 -2.828125 5.578125 -2.671875 C 5.773438 -2.515625 6.035156 -2.4375 6.359375 -2.4375 C 6.515625 -2.4375 6.664062 -2.445312 6.8125 -2.46875 C 6.96875 -2.5 7.085938 -2.523438 7.171875 -2.546875 L 7.671875 -0.140625 C 7.503906 -0.0859375 7.273438 -0.03125 6.984375 0.03125 C 6.691406 0.101562 6.335938 0.144531 5.921875 0.15625 C 4.753906 0.207031 3.816406 -0.0390625 3.109375 -0.59375 C 2.398438 -1.15625 2.050781 -2.003906 2.0625 -3.140625 L 2.0625 -9.1875 L 0.46875 -9.1875 L 0.46875 -11.609375 L 2.0625 -11.609375 L 2.0625 -14.390625 L 5.28125 -14.390625 L 5.28125 -11.609375 Z M 7.453125 -11.609375 "/></g></g><g style="fill:#010101;fill-opacity:1;"><g transform="translate(221.620334, 56.933629)"><path style="stroke:none" d="M 6.578125 0.234375 C 5.390625 0.234375 4.363281 -0.0078125 3.5 -0.5 C 2.632812 -0.988281 1.96875 -1.679688 1.5 -2.578125 C 1.039062 -3.472656 0.8125 -4.53125 0.8125 -5.75 C 0.8125 -6.945312 1.039062 -7.992188 1.5 -8.890625 C 1.96875 -9.796875 2.625 -10.5 3.46875 -11 C 4.3125 -11.507812 5.304688 -11.765625 6.453125 -11.765625 C 7.472656 -11.765625 8.394531 -11.546875 9.21875 -11.109375 C 10.039062 -10.671875 10.691406 -10.015625 11.171875 -9.140625 C 11.660156 -8.273438 11.90625 -7.179688 11.90625 -5.859375 L 11.90625 -4.984375 L 4 -4.984375 L 4 -4.96875 C 4 -4.101562 4.234375 -3.421875 4.703125 -2.921875 C 5.179688 -2.421875 5.820312 -2.171875 6.625 -2.171875 C 7.164062 -2.171875 7.628906 -2.285156 8.015625 -2.515625 C 8.410156 -2.742188 8.691406 -3.078125 8.859375 -3.515625 L 11.828125 -3.328125 C 11.609375 -2.242188 11.035156 -1.378906 10.109375 -0.734375 C 9.191406 -0.0859375 8.015625 0.234375 6.578125 0.234375 Z M 4 -6.96875 L 8.875 -6.96875 C 8.863281 -7.664062 8.640625 -8.238281 8.203125 -8.6875 C 7.765625 -9.132812 7.195312 -9.359375 6.5 -9.359375 C 5.78125 -9.359375 5.191406 -9.125 4.734375 -8.65625 C 4.273438 -8.195312 4.03125 -7.632812 4 -6.96875 Z M 4 -6.96875 "/></g></g><g style="fill:#010101;fill-opacity:1;"><g transform="translate(234.341985, 56.933629)"><path style="stroke:none" d="M 4.5 -6.703125 L 4.5 0 L 1.28125 0 L 1.28125 -11.609375 L 4.359375 -11.609375 L 4.359375 -9.5625 L 4.484375 -9.5625 C 4.742188 -10.238281 5.175781 -10.773438 5.78125 -11.171875 C 6.382812 -11.566406 7.117188 -11.765625 7.984375 -11.765625 C 9.191406 -11.765625 10.160156 -11.375 10.890625 -10.59375 C 11.617188 -9.8125 11.984375 -8.742188 11.984375 -7.390625 L 11.984375 0 L 8.765625 0 L 8.765625 -6.8125 C 8.773438 -7.519531 8.59375 -8.070312 8.21875 -8.46875 C 7.851562 -8.875 7.347656 -9.078125 6.703125 -9.078125 C 6.054688 -9.078125 5.53125 -8.867188 5.125 -8.453125 C 4.71875 -8.046875 4.507812 -7.460938 4.5 -6.703125 Z M 4.5 -6.703125 "/></g></g><g style="fill:#010101;fill-opacity:1;"><g transform="translate(247.577636, 56.933629)"><path style="stroke:none" d="M 10.9375 -8.296875 L 8 -8.109375 C 7.914062 -8.484375 7.707031 -8.804688 7.375 -9.078125 C 7.050781 -9.347656 6.609375 -9.484375 6.046875 -9.484375 C 5.554688 -9.484375 5.132812 -9.375 4.78125 -9.15625 C 4.4375 -8.945312 4.269531 -8.671875 4.28125 -8.328125 C 4.269531 -8.046875 4.375 -7.8125 4.59375 -7.625 C 4.820312 -7.4375 5.207031 -7.285156 5.75 -7.171875 L 7.859375 -6.734375 C 10.085938 -6.273438 11.203125 -5.226562 11.203125 -3.59375 C 11.203125 -2.832031 10.976562 -2.164062 10.53125 -1.59375 C 10.09375 -1.019531 9.484375 -0.570312 8.703125 -0.25 C 7.929688 0.0703125 7.039062 0.234375 6.03125 0.234375 C 4.5 0.234375 3.273438 -0.0859375 2.359375 -0.734375 C 1.453125 -1.378906 0.921875 -2.253906 0.765625 -3.359375 L 3.9375 -3.53125 C 4.039062 -3.050781 4.273438 -2.691406 4.640625 -2.453125 C 5.003906 -2.210938 5.472656 -2.09375 6.046875 -2.09375 C 6.609375 -2.09375 7.0625 -2.203125 7.40625 -2.421875 C 7.75 -2.648438 7.925781 -2.929688 7.9375 -3.265625 C 7.914062 -3.847656 7.421875 -4.234375 6.453125 -4.421875 L 4.4375 -4.828125 C 2.1875 -5.273438 1.066406 -6.378906 1.078125 -8.140625 C 1.078125 -9.265625 1.523438 -10.148438 2.421875 -10.796875 C 3.316406 -11.441406 4.507812 -11.765625 6 -11.765625 C 7.46875 -11.765625 8.625 -11.453125 9.46875 -10.828125 C 10.3125 -10.210938 10.800781 -9.367188 10.9375 -8.296875 Z M 10.9375 -8.296875 "/></g></g><g style="fill:#010101;fill-opacity:1;"><g transform="translate(259.53584, 56.933629)"><path style="stroke:none" d="M 1.28125 0 L 1.28125 -11.609375 L 4.5 -11.609375 L 4.5 0 Z M 2.890625 -13.109375 C 2.421875 -13.109375 2.015625 -13.265625 1.671875 -13.578125 C 1.328125 -13.898438 1.15625 -14.285156 1.15625 -14.734375 C 1.15625 -15.179688 1.328125 -15.5625 1.671875 -15.875 C 2.015625 -16.195312 2.421875 -16.359375 2.890625 -16.359375 C 3.367188 -16.359375 3.78125 -16.195312 4.125 -15.875 C 4.46875 -15.5625 4.640625 -15.179688 4.640625 -14.734375 C 4.640625 -14.285156 4.46875 -13.898438 4.125 -13.578125 C 3.78125 -13.265625 3.367188 -13.109375 2.890625 -13.109375 Z M 2.890625 -13.109375 "/></g></g><g style="fill:#010101;fill-opacity:1;"><g transform="translate(265.325963, 56.933629)"><path style="stroke:none" d="M 6.53125 0.234375 C 5.351562 0.234375 4.335938 -0.015625 3.484375 -0.515625 C 2.628906 -1.023438 1.96875 -1.726562 1.5 -2.625 C 1.039062 -3.519531 0.8125 -4.566406 0.8125 -5.765625 C 0.8125 -6.960938 1.039062 -8.007812 1.5 -8.90625 C 1.96875 -9.800781 2.628906 -10.5 3.484375 -11 C 4.335938 -11.507812 5.351562 -11.765625 6.53125 -11.765625 C 7.707031 -11.765625 8.722656 -11.507812 9.578125 -11 C 10.429688 -10.5 11.085938 -9.800781 11.546875 -8.90625 C 12.015625 -8.007812 12.25 -6.960938 12.25 -5.765625 C 12.25 -4.566406 12.015625 -3.519531 11.546875 -2.625 C 11.085938 -1.726562 10.429688 -1.023438 9.578125 -0.515625 C 8.722656 -0.015625 7.707031 0.234375 6.53125 0.234375 Z M 6.546875 -2.265625 C 7.335938 -2.265625 7.9375 -2.597656 8.34375 -3.265625 C 8.757812 -3.929688 8.96875 -4.769531 8.96875 -5.78125 C 8.96875 -6.789062 8.757812 -7.628906 8.34375 -8.296875 C 7.9375 -8.960938 7.335938 -9.296875 6.546875 -9.296875 C 5.734375 -9.296875 5.117188 -8.960938 4.703125 -8.296875 C 4.296875 -7.628906 4.09375 -6.789062 4.09375 -5.78125 C 4.09375 -4.769531 4.296875 -3.929688 4.703125 -3.265625 C 5.117188 -2.597656 5.734375 -2.265625 6.546875 -2.265625 Z M 6.546875 -2.265625 "/></g></g><g style="fill:#010101;fill-opacity:1;"><g transform="translate(278.387763, 56.933629)"><path style="stroke:none" d="M 4.5 -6.703125 L 4.5 0 L 1.28125 0 L 1.28125 -11.609375 L 4.359375 -11.609375 L 4.359375 -9.5625 L 4.484375 -9.5625 C 4.742188 -10.238281 5.175781 -10.773438 5.78125 -11.171875 C 6.382812 -11.566406 7.117188 -11.765625 7.984375 -11.765625 C 9.191406 -11.765625 10.160156 -11.375 10.890625 -10.59375 C 11.617188 -9.8125 11.984375 -8.742188 11.984375 -7.390625 L 11.984375 0 L 8.765625 0 L 8.765625 -6.8125 C 8.773438 -7.519531 8.59375 -8.070312 8.21875 -8.46875 C 7.851562 -8.875 7.347656 -9.078125 6.703125 -9.078125 C 6.054688 -9.078125 5.53125 -8.867188 5.125 -8.453125 C 4.71875 -8.046875 4.507812 -7.460938 4.5 -6.703125 Z M 4.5 -6.703125 "/></g></g></g></g></g></svg>